<svg xmlns:dc="http://purl.org/dc/elements/1.1/" xmlns:cc="http://creativecommons.org/ns#" xmlns:rdf="http://www.w3.org/1999/02/22-rdf-syntax-ns#" xmlns:svg="http://www.w3.org/2000/svg" xmlns="http://www.w3.org/2000/svg" xmlns:xlink="http://www.w3.org/1999/xlink" xmlns:sodipodi="http://sodipodi.sourceforge.net/DTD/sodipodi-0.dtd" xmlns:inkscape="http://www.inkscape.org/namespaces/inkscape" width="246" height="686.60425" id="svg2" sodipodi:version="0.32" inkscape:version="0.46" version="1.0" sodipodi:docname="bomb_20.svg" inkscape:output_extension="org.inkscape.output.svg.inkscape" inkscape:export-filename="/home/roger/mis-dibujos/open/bomb_20.png" inkscape:export-xdpi="90" inkscape:export-ydpi="90">
  <sodipodi:namedview id="base" pagecolor="#ffffff" bordercolor="#666666" borderopacity="1.0" inkscape:pageopacity="0.0" inkscape:pageshadow="2" inkscape:zoom="0.5" inkscape:cx="115.53356" inkscape:cy="619.88183" inkscape:document-units="px" inkscape:current-layer="layer1" showgrid="false" showguides="true" inkscape:guide-bbox="true" inkscape:window-width="1272" inkscape:window-height="944" inkscape:window-x="0" inkscape:window-y="0">
    <sodipodi:guide orientation="1,0" position="768,50" id="guide3389"/>
  </sodipodi:namedview>
  <metadata id="metadata7">
    <rdf:RDF>
      <cc:Work rdf:about="">
        <dc:format>image/svg+xml</dc:format>
        <dc:type rdf:resource="http://purl.org/dc/dcmitype/StillImage"/>
      </cc:Work>
    </rdf:RDF>
  </metadata>
  <g inkscape:label="Capa 1" inkscape:groupmode="layer" id="layer1" transform="translate(-186.44365,-131.34375)">
    <path sodipodi:nodetypes="cccccc" id="path3768" d="M 376.44365,606.94797 L 431.44365,695.94797 L 432.44365,816.94797 L 379.44365,817.94797 L 340.44365,775.94797 L 376.44365,606.94797 z" style=""/>
    <path style="fill:#000000;fill-opacity:1;fill-rule:evenodd;stroke:none;stroke-width:1px;stroke-linecap:butt;stroke-linejoin:miter;stroke-opacity:1" d="M 242.44365,604.94797 L 187.44365,693.94797 L 186.44365,814.94797 L 239.44365,815.94797 L 278.44365,773.94797 L 242.44365,604.94797 z" id="path3385" sodipodi:nodetypes="cccccc"/>
    <path style="" d="M 301.96875,131.34375 C 301.96875,131.34375 202.30323,217.44958 201.96875,347.375 C 201.62597,480.52446 269.96875,782.37501 269.96875,782.375 L 342.03125,782.375 C 342.03127,782.37501 410.37403,480.52446 410.03125,347.375 C 409.69679,217.44958 310.03125,131.34375 310.03125,131.34375 L 301.96875,131.34375 z" id="rect3379" sodipodi:nodetypes="csccscc"/>
    <path style="" d="M 299.08533,626.30328 L 307,606.80328 L 315.08533,626.30328 L 315.08533,813.30328 L 299.08533,813.30328 L 299.08533,626.30328 z" id="rect3411" sodipodi:nodetypes="cccccc"/>
    <path style="" d="M 304.73848,132.9087 C 304.05454,133.50122 210.77214,214.53078 210.45776,336.65293 C 210.13439,462.2657 274.60874,747.03055 274.60874,747.03054 C 285.74942,533.95625 180.82167,311.4744 304.73848,132.9087 z" id="path3753" sodipodi:nodetypes="cscc"/>
    <path style="fill:url(#linearGradient3800);fill-opacity:1;fill-rule:nonzero;stroke:none;stroke-width:1.95687926;stroke-linecap:square;stroke-linejoin:round;stroke-miterlimit:4;stroke-dashoffset:0;stroke-opacity:1" d="" id="path3770" sodipodi:nodetypes="cccc"/>
    <path style="" d="M 304.75,142.90625 C 304.52507,143.10111 294.24856,152.05479 280.59375,168.25 C 188.97408,335.75583 273.14671,537.58011 269.3125,732.9375 C 269.31189,732.96869 269.31312,733.00006 269.3125,733.03125 C 272.54532,747.98235 274.59375,757.03125 274.59375,757.03125 C 285.73444,543.95698 180.83319,321.47195 304.75,142.90625 z" id="path3802"/>
    <path style="" d="M 202.39724,299.47846 C 202.34687,299.93878 202.30703,300.41006 202.30703,300.87469 C 202.30703,320.52796 247.78748,336.47846 303.8259,336.47846 C 359.86432,336.47846 405.34477,320.52796 405.34477,300.87469 C 405.34477,300.41006 405.30493,299.93878 405.25456,299.47846 C 403.15875,318.48459 358.52943,333.68601 303.8259,333.68601 C 249.12237,333.68601 204.49306,318.48459 202.39724,299.47846 z" id="path3404"/>
    <path style="" d="M 249.56854,203.26507 C 249.56854,203.26507 251.39416,236.6268 306.30564,206.83237 C 343.0081,186.91798 357.06349,209.00771 357.06349,209.00771 C 357.06349,209.00771 322.83476,136.56643 304.1518,136.79703 C 288.02613,139.59791 249.56854,203.26507 249.56854,203.26507 z" id="path3853" sodipodi:nodetypes="csccc"/>
    <path sodipodi:nodetypes="csccc" id="path3904" d="" style="opacity:0.56338027999999996;fill:url(#linearGradient4000);fill-opacity:1;fill-rule:evenodd;stroke:none;stroke-width:1px;stroke-linecap:butt;stroke-linejoin:miter;stroke-opacity:1"/>
  </g>
</svg>