<?xml version="1.0" encoding="UTF-8" standalone="no"?>
<!-- Created with Inkscape (http://www.inkscape.org/) -->

<svg
   xmlns:dc="http://purl.org/dc/elements/1.1/"
   xmlns:cc="http://creativecommons.org/ns#"
   xmlns:rdf="http://www.w3.org/1999/02/22-rdf-syntax-ns#"
   xmlns:svg="http://www.w3.org/2000/svg"
   xmlns="http://www.w3.org/2000/svg"
   xmlns:sodipodi="http://sodipodi.sourceforge.net/DTD/sodipodi-0.dtd"
   xmlns:inkscape="http://www.inkscape.org/namespaces/inkscape"
   width="330.04874"
   height="206.81731"
   id="svg2"
   sodipodi:version="0.32"
   inkscape:version="0.47 r22583"
   sodipodi:docname="Marx_Engels_Lenin.svg"
   inkscape:output_extension="org.inkscape.output.svg.inkscape"
   version="1.0">
  <defs
     id="defs4">
    <inkscape:perspective
       sodipodi:type="inkscape:persp3d"
       inkscape:vp_x="0 : 200.39244 : 1"
       inkscape:vp_y="0 : 1000 : 0"
       inkscape:vp_z="493.21313 : 200.39244 : 1"
       inkscape:persp3d-origin="246.60657 : 133.59496 : 1"
       id="perspective21" />
  </defs>
  <sodipodi:namedview
     id="base"
     pagecolor="#ffffff"
     bordercolor="#666666"
     borderopacity="1.0"
     inkscape:pageopacity="0.0"
     inkscape:pageshadow="2"
     inkscape:zoom="0.945"
     inkscape:cx="229.66398"
     inkscape:cy="73.494579"
     inkscape:document-units="px"
     inkscape:current-layer="layer1"
     showgrid="false"
     inkscape:window-width="948"
     inkscape:window-height="710"
     inkscape:window-x="112"
     inkscape:window-y="25"
     inkscape:window-maximized="0" />
  <metadata
     id="metadata7">
    <rdf:RDF>
      <cc:Work
         rdf:about="">
        <dc:format>image/svg+xml</dc:format>
        <dc:type
           rdf:resource="http://purl.org/dc/dcmitype/StillImage" />
        <dc:title>Marx, Engels, Lenin</dc:title>
        <dc:date>2008-01-22</dc:date>
        <dc:creator>
          <cc:Agent>
            <dc:title>Julio Garay</dc:title>
          </cc:Agent>
        </dc:creator>
        <dc:subject>
          <rdf:Bag>
            <rdf:li>Marx Engels Lenin</rdf:li>
          </rdf:Bag>
        </dc:subject>
        <cc:license
           rdf:resource="http://creativecommons.org/licenses/by-nd/2.5/" />
      </cc:Work>
      <cc:License
         rdf:about="http://creativecommons.org/licenses/by-nd/2.5/">
        <cc:permits
           rdf:resource="http://web.resource.org/cc/Reproduction" />
        <cc:permits
           rdf:resource="http://web.resource.org/cc/Distribution" />
        <cc:requires
           rdf:resource="http://web.resource.org/cc/Notice" />
        <cc:requires
           rdf:resource="http://web.resource.org/cc/Attribution" />
      </cc:License>
    </rdf:RDF>
  </metadata>
  <g
     inkscape:label="Capa 1"
     inkscape:groupmode="layer"
     id="layer1"
     transform="translate(-189.61072,-207.61992)">
    <path
       style="fill:#000000;fill-opacity:1;stroke:none"
       d="m 352.04904,253.37156 c -4.52655,-18.10445 -28.93456,-29.19289 -42.6753,-32.06994 -24.20818,-12.12382 -55.46602,-2.44114 -63.03308,20.36724 -22.32676,6.08644 -22.74981,38.29183 -29.521,43.44155 -0.7746,1.06975 -1.10101,2.85818 -0.50313,3.26264 12.40621,5.67275 0.66852,6.67009 -6.32086,23.08871 -0.11299,0.85244 -1.05616,4.039 5.09181,7.63771 -16.75729,4.82257 -7.89273,21.37204 -4.38949,22.82535 -19.29651,17.21704 -8.57904,36.86501 -1.91891,46.5286 11.84062,7.1792 20.68033,8.35656 29.26672,9.0273 l 46.39562,2.2098 c 40.52061,-0.9129 68.26035,-43.40848 67.60762,-146.31896 z"
       id="path7057"
       sodipodi:nodetypes="cccccccccccc" />
    <path
       style="fill:#ffffff;fill-opacity:1;stroke:none"
       d="m 285.53414,217.49032 c -19.37171,0.45636 -34.96859,11.95095 -37.95467,25.92884 -21.433,5.2058 -20.32422,28.48608 -28.62732,41.79707 -1.2164,0.88598 -1.3301,2.9042 -0.43997,3.31444 11.40641,5.25676 -4.10514,11.81056 -6.42355,22.2331 -1.63057,7.3303 8.71253,4.73834 10.55926,4.98632 3.56875,0.47921 7.16778,3.89172 9.64999,2.37583 2.87959,-1.75858 1.10043,-4.72722 1.3199,-6.83418 0.21778,-2.09062 2.04704,-1.02807 2.55183,1.49589 0.50478,2.52395 -0.15377,4.39354 -1.14392,6.21823 -0.51532,0.94965 -3.37883,1.36583 -5.69027,1.46656 -0.01,-0.004 -0.0194,0.004 -0.0293,0 -2.12415,-0.79862 -4.79747,-1.66113 -6.83418,-1.7892 -0.24371,-0.0153 -0.47931,-0.034 -0.70395,-0.0293 -3.36967,0.0704 -4.63435,2.25851 -4.63435,2.25851 -6.11546,-1.05465 -10.06066,2.31066 -10.55926,9.06336 -0.34562,4.68099 0.89314,9.62171 7.45015,11.64452 -17.13055,11.427 -16.46075,28.11657 -4.45835,45.5808 l 17.12946,5.22097 c -8.92693,-21.09197 -19.49999,-33.90995 5.83692,-44.37822 5.76844,10.20824 13.50446,14.77561 23.96366,11.61519 -0.46922,-11.25952 -6.45217,-11.00737 -7.6848,-20.00393 -1.30488,0.29927 -2.71781,-1.06898 -4.2237,-3.3731 2.59786,-0.35599 5.41894,-2.1467 4.75166,-3.31444 -0.55117,-5.98092 -0.055,-11.04098 2.61049,-13.34573 l 4.39969,4.57568 c -0.73702,-17.71382 19.46675,-11.77256 13.69771,-35.46151 l -9.91398,10.35394 c -3.93762,0.27762 -8.64627,0.91243 -12.64178,3.7544 2.01982,-3.23665 0.79237,-4.98711 -0.61595,-7.53813 -2.47368,-0.17871 -6.49368,-0.98795 -9.67932,0.43997 -0.55967,2.86506 0.7712,3.75996 2.63981,5.27963 -7.49184,0.88076 -6.67166,-7.14444 -10.00196,-8.27142 -2.72733,-1.04841 -1.5857,-4.25726 -2.19985,-6.13024 2.80763,-0.35774 4.76442,-0.35084 6.59954,-1.4079 10.67236,-6.1475 18.23223,1.27508 27.39541,5.60227 1.47272,-1.24875 2.33488,-1.22054 2.3465,-3.93039 3.81691,0.2355 2.4139,-3.74773 2.9038,-5.54361 -0.74892,-0.1089 -3.6953,-2.10126 -7.18616,0.87994 10.89418,-15.73302 1.48048,-21.39426 28.07003,-35.10954 -3.24976,4.15537 -2.53592,4.43665 -2.72781,7.71413 14.63938,-4.95873 2.978,-8.63929 21.70514,-16.13221 -11.0511,-2.04047 -10.11487,6.1975 -21.58782,0.85061 8.88589,-5.93319 19.54812,-10.27633 32.64571,-12.46579 -10.93846,-7.06056 -22.11732,-9.83038 -32.2644,-9.59133 z m 2.87447,8.21275 c 5.15119,-0.0159 10.18673,0.46837 14.81229,0.70395 -8.31478,2.63136 -20.89468,3.96397 -29.65392,12.81777 -6.53632,-4.0603 -12.20874,0.39028 -17.04147,1.37857 8.73871,-12.48105 20.55048,-14.86534 31.8831,-14.90029 z m -44.58354,60.56909 c -1.73921,0.0538 -3.14989,0.92886 -6.45288,0.70395 -0.53297,1.85977 -0.9533,3.67409 0.35197,5.07431 10.12216,-0.96972 10.32776,3.04062 17.30546,5.10364 0.46467,-0.87217 1.24345,-1.11637 1.08525,-1.93586 -0.28009,-1.45086 -3.37303,-2.12815 -3.7544,-4.75167 -4.70835,-3.50169 -6.79619,-4.24813 -8.5354,-4.19437 z m 28.68599,27.39541 c -0.003,0.008 -6.01059,5.38554 -9.562,5.01565 -0.79704,0.79833 -2.45123,2.87971 -2.8158,3.84239 -4.09281,10.80729 -3.78374,15.2816 -3.78374,15.2816 1.39824,-3.38024 2.70114,-5.97326 4.75167,-7.83145 0.8779,0.12438 0.67666,1.15021 1.55456,2.63981 1.82069,-10.00803 10.6991,-12.62713 9.85531,-18.948 z m -42.26637,7.80212 c 3.62259,2.44156 9.43521,8.60869 12.20181,12.70044 -3.96519,-1.51453 -7.73329,-4.35568 -13.16974,-8.21276 -1.95298,-2.07772 -0.89095,-3.99666 0.96793,-4.48768 z m -16.45485,11.3512 c 2.64157,4.22544 7.79121,6.967 15.39892,8.21276 0.78734,1.9723 1.61074,3.81296 2.49316,5.51428 -3.71719,-0.49101 -5.2512,-1.78603 -8.21276,-2.55182 -3.4765,0.33159 -6.77741,0.21025 -8.94604,-2.72781 -0.0117,0.008 -0.0176,0.0218 -0.0293,0.0293 l -0.70395,-8.47674 z"
       id="path8028" />
    <path
       style="fill:#000000;fill-opacity:1;stroke:none"
       d="m 418.14301,236.24084 c -11.50495,-14.87512 -42.53787,-25.31016 -72.25736,-21.1061 -24.3341,-6.20768 -40.47406,14.4018 -40.47406,14.4018 17.97551,-1.36678 -0.93875,0.98354 7.94582,6.7043 -15.90678,12.53549 -13.26027,37.46335 -23.52709,40.5982 -2.64437,3.69083 0.62502,2.38722 4.62793,7.34629 2.58457,10.29177 -15.65688,15.93251 -9.2837,28.22371 -10.69152,12.53674 -4.54932,18.01346 0.12416,23.89956 -5.70554,4.86321 -6.57396,10.82858 -4.71783,29.54853 l -8.44244,21.35442 c 0.66407,18.74763 42.42255,28.96859 56.61402,12.91197 34.40186,-38.92324 76.76517,-29.78714 77.15772,-26.64675 6.35876,4.57832 41.79731,-99.01106 12.23283,-137.23593 z"
       id="path8056"
       sodipodi:nodetypes="ccccccccccscs" />
    <path
       sodipodi:nodetypes="cccscccscssssssccccssccccccccccsssccccccccccccccccccccccccccccccssscsccccccccccccccccccccccccccssccssccccccccc"
       style="fill:#ffffff;fill-opacity:1;stroke:none"
       d="m 336.77588,215.61311 c -13.68792,0.0765 -22.44985,7.47676 -27.39541,12.05516 l 5.83692,0.76261 c -1e-5,1e-5 -2.87818,2.26146 -3.34376,4.34103 -0.46559,2.07956 2.96246,3.46109 2.96246,3.46109 -18.89082,15.50083 -12.40955,37.03456 -24.08098,41.09312 -2.50742,4.77967 8.55167,4.67216 5.48495,7.45014 -1.11588,11.58814 -10.81955,13.87662 -11.11656,20.88387 -0.0808,1.90761 0.1153,4.46473 1.11459,5.83692 2.22382,0.79434 5.65288,1.9389 6.86352,1.90654 2.12732,-0.058 4.65083,-1.00311 6.57021,-1.20259 2.11165,-0.21945 5.11386,2.95847 7.06883,1.55456 1.61261,-1.15802 1.46521,-4.59896 1.17326,-6.15957 -0.45142,-2.41302 2.5087,-1.29255 2.37583,1.52523 -0.19343,4.1022 1.57594,6.44866 -3.93039,7.5968 -4.04043,0.84248 -4.13527,-3.37084 -12.05516,-0.52796 -4.14354,-1.80163 -5.13015,-1.52952 -9.21002,-2.25851 l -1.7892,2.52249 c -7.44981,10.25857 1.43714,18.13567 3.49042,19.9746 -8.46944,5.12623 -5.55545,18.97095 -5.22097,29.18462 0.0952,2.90771 -6.11834,13.67789 -7.33282,20.32657 -1.93451,10.5905 12.61331,20.00466 31.79076,20.90156 -1.60323,-6.08667 -2.16723,-6.83528 -6.57192,-10.32787 1.51844,-5.09924 -0.026,-9.58131 0.006,-13.15764 l 5.07353,4.97872 c 0.33314,-9.02182 4.54724,-11.22297 3.34454,-27.94231 -1.66672,0.22227 -2.87336,0.0104 -5.19163,3.49042 2.09817,-10.30739 1.62821,-8.4099 6.95151,-13.16974 -1.18126,-2.15201 -1.79417,-4.30088 -0.99726,-6.45288 1.81977,1.66937 4.21782,7.55693 6.24756,3.31443 -2.89328,9.44475 9.61004,17.00784 17.83341,21.26518 5.79338,-14.94432 1.05787,-12.88671 0.99727,-22.11578 10e-6,0 -0.99881,0.72293 -3.07979,0.79194 -2.00463,0.0665 -2.67395,-1.09813 -2.05319,-2.46383 0.62078,-1.3657 2.63982,-1.7892 2.63982,-1.7892 l -2.46383,-3.66641 c -1.47203,-0.47709 -2.15967,-0.19555 -3.60734,0.71728 -2.43314,-5.81889 -2.0023,-8.39085 -5.5754,-10.24811 3.01451,-1.1877 2.76749,-1.50669 6.30828,-1.70305 -1.86548,-4.30611 -2.60612,-7.85565 -1.4959,-10.17795 3.84328,-3.84878 5.90797,-7.70777 7.45014,-11.55653 4.11887,-3.5613 7.00395,-4.60533 9.82598,-5.57294 -0.72739,-6.51033 -3.66783,-10.01078 -11.02856,-7.36215 -0.0796,0.35286 -0.22598,0.77193 -0.4693,1.34924 -5.32276,0.21045 -5.9701,-4.79323 -9.23935,-6.15957 -5.94988,1.94242 -7.77836,1.3547 -9.562,0.73328 l 3.72508,6.95151 c -4.59052,-1.60316 -13.43778,-5.84095 -10.55926,-13.40439 -4.12573,3.45083 -3.92664,-1.77712 -4.60501,-5.22097 6.50091,0.70584 11.54991,-1.60744 16.89481,-4.19437 5.70672,7.18029 14.91156,0.52306 19.12399,9.91397 l 0.85061,1.84787 c 1.64569,-2.16875 2.9789,-4.43534 2.75714,-7.80212 l -0.14666,-14.167 c 8.16975,-6.88341 15.11196,-12.82146 14.16701,-20.35591 -1.52518,-7.60048 -7.40584,-7.80382 -14.78296,-6.95151 5.05421,-7.40463 14.14257,-8.8627 24.72626,-10.4126 -2.52782,-4.4248 -12.8005,-1.10144 -20.85453,0 -1.66522,-6.62546 19.74112,-8.52811 24.5796,-6.71686 -4.71033,-5.53795 -14.57014,-2.56227 -22.35043,-2.72781 -2.88024,-0.55427 -5.58996,-0.77678 -8.12476,-0.76262 z m 1.90653,6.98085 c -4.40501,3.14391 -6.50855,4.29032 -7.06883,13.52172 l -11.29254,0 c -1.37333,-0.32899 -0.12351,-11.23752 3.72507,-12.96443 0,-1e-5 -2.16631,2.50031 -1.26125,4.51702 0.047,0.10488 4.1285,-2.06777 4.54635,-1.78921 -2e-5,0 -3.01009,1.82252 -2.31717,5.39696 0.91339,-0.0462 1.99452,0.11732 1.99453,0.11732 3.23739,-7.919 7.79938,-8.13737 11.67384,-8.79938 z m -14.02035,58.86787 -4.92765,1.67188 c -2.33667,0.6482 -4.84808,0.43991 -8.27142,-0.14666 l 0.64529,2.9038 c 2.06746,1.1195 4.98855,1.24826 8.71139,0.38131 3.02584,1.40485 6.57507,2.49632 8.47674,4.57568 l 4.86899,-1.90654 c 0.49763,-0.68782 1.00907,-1.35041 1.52522,-1.99452 l -2.58115,-2.19985 c -2.27249,-3.81689 -3.83453,-0.88913 -8.44741,-3.2851 z m 26.31016,19.27065 c -0.59448,-0.13568 -1.7041,1.26408 -2.61049,1.17325 -3.38873,14.78862 -9.53787,6.67024 -17.62809,27.07276 3.64666,-2.41615 6.86872,-6.32863 10.17795,-11.05789 l 1.75988,2.25851 c 2.62932,-7.37319 5.18763,-7.33913 8.41807,-14.90029 0.49075,-3.38517 0.34505,-4.44082 -0.11732,-4.54634 z m -43.87959,15.89755 c 2.20291,1.99277 4.34779,3.93208 6.01291,6.89285 1.10462,-0.35486 1.41566,0.002 1.58389,-0.82128 1.62855,1.95455 1.99115,5.8419 2.58115,9.562 -1.62583,-1.76589 -2.13135,-4.67464 -4.48768,-5.39696 -1.23878,-0.0222 -1.30942,0.69786 -1.78921,1.75988 -3.96504,-2.31727 -2.17308,-7.65211 -3.90106,-11.99649 z m -20.00393,6.33555 c 0,0 2.43449,5.78031 2.4345,6.6582 0,0.8779 0.87992,-2.25852 0.87993,-2.25851 0.97927,1.11849 3.09319,2.07577 3.87173,4.07705 -0.25442,-1.1635 -0.67286,-2.36459 -1.58389,-3.72507 0,0 2.89271,1.52848 4.42903,2.93313 1.53632,1.40463 1.73053,2.66915 1.73054,2.66914 1.71472,-0.45945 2.77453,-0.58696 4.28237,-0.11732 1.03832,7.61252 2.53757,6.27178 3.78373,9.41534 -2.21083,-1.04617 -4.38281,-2.13291 -5.10364,-4.89833 l -0.70395,1.75988 c -1.35981,-0.9468 -2.472,-2.05203 -2.78647,-3.69574 -0.0185,1.57066 -2.11171,0.75668 -3.13845,1.08526 -0.93416,-1.1178 -2.50424,-0.21672 -4.2237,-2.3465 -0.33133,1.281 0.13517,0.56145 -1.08526,1.81853 -4.01167,-3.34797 -3.71178,-9.17894 -2.78647,-13.37506 z"
       id="path9999" />
    <path
       sodipodi:nodetypes="ccsccccscssscsccscc"
       id="path3143"
       d="m 484.14304,382.91584 c 2.39381,-33.54792 22.34992,-40.81622 25.38404,-69.39113 -0.23208,-27.6113 -3.41989,-54.70226 -28.18991,-72.15085 -27.75715,-19.5528 -99.50817,-33.5327 -109.42101,29.88193 -1.36631,1.79174 -8.56842,5.54383 -7.9176,10.77489 -3.49138,1.4179 -3.3982,3.74818 -2.99272,6.97592 9.26681,0.13693 4.59287,7.97908 3.15292,9.27345 0,0 -14.62471,12.16295 -10.73437,15.50767 2.95185,2.53784 5.66232,3.16293 3.95767,4.37448 0,0 0.31055,-0.53279 -2.4026,1.61248 -3.42396,2.7073 -2.77748,3.26305 -2.43448,6.84874 0.34301,3.58569 2.24033,4.32758 3.36754,8.37192 1.12719,4.04433 0.43894,7.1031 0.43894,7.1031 -2.32854,1.49454 -9.66396,6.72295 -10.45636,8.18922 -1.78225,3.29794 -1.03094,14.43637 -0.35698,16.59518 5.07709,14.54111 7.93676,11.56459 12.16731,11.48597 14.49281,-7.97137 24.25448,4.79598 27.49977,8.62303 3.24528,3.82706 7.24568,12.07035 10.07049,17.85128 25.33742,-16.29158 55.78142,-20.47925 88.86735,-21.92728 z"
       style="fill:#000000;fill-opacity:1;stroke:none" />
    <path
       style="fill:#ffffff;fill-opacity:1;stroke:none"
       d="m 426.35196,226.38096 c -24.59786,0.13089 -48.04092,11.41854 -53.35359,45.40481 -1.33897,1.75591 -8.41059,5.43283 -7.77278,10.55926 -2.89483,1.38957 -2.95124,2.2631 -3.43176,5.42629 10.83651,-2.33628 11.36199,4.40304 10.11929,5.83692 -1.14129,1.31684 -20.91124,15.08539 -16.48418,19.15333 2.80912,2.58123 8.73577,6.23435 6.68753,6.30622 -5.00402,0.17558 -10.14317,4.91576 -6.04224,10.44193 7.28867,-4.86465 22.67754,4.96302 22.93705,3.54909 0.51756,-2.81987 -1.96119,-8.863 1.4959,-6.98085 8.15136,4.4379 6.87322,12.00543 7.30349,15.51625 -6.07252,-6.23071 -28.6607,-10.50991 -30.06456,-5.39696 -1.16353,4.2376 1.78279,3.75706 1.73055,4.869 -0.0975,2.07562 -1.46657,3.49042 -1.46657,3.49042 -2.28197,1.46466 -8.4066,4.6387 -10.23661,7.83145 -1.8269,3.18729 -1.27644,10.99544 -0.61596,13.11108 1.80369,1.55829 7.71137,6.29361 7.68479,6.1009 11.10507,-6.93122 23.23987,-12.11617 30.9445,-16.5135 -10e-6,0 2.79313,-2.29979 4.63434,-3.05046 1.84123,-0.75066 3.25577,-1.08525 3.25577,-1.08525 1e-5,10e-6 6.60723,-11.67449 6.95152,-20.09193 1.19488,-3.29889 5.22096,-7.15683 5.22096,-7.15683 -6.09535,-3.03442 -8.27592,7.20554 -11.70318,8.33008 -1.48024,-17.08533 17.31467,-19.00129 26.89678,-27.42474 3.77623,-3.31959 3.3731,-13.72705 3.3731,-13.72704 -4.52522,-2.81708 0.65266,5.13666 -9.44467,5.16231 -0.0993,-0.79079 -0.84476,-4.89852 -0.9386,-5.57294 -0.47989,-3.44896 -7.32272,-6.36342 -9.06337,-7.2155 -3.2231,0.68385 -12.46003,-1.57886 -14.78296,5.80759 10.03904,0.63436 7.14717,1.09881 13.72704,3.19711 2.64657,-1.94105 3.88749,-4.5552 5.27963,-3.84239 1.8565,0.26048 3.73259,4.86201 2.17051,5.98358 -1.00215,0.83545 -5.23286,-2.01272 -3.60774,3.84239 -0.83299,0.32437 -6.1703,0.11116 -8.33009,4.63435 -6.28592,0.30926 -8.26296,0.25576 -7.9781,-3.25578 8.72012,1.05447 10.31397,-4.01767 10.85257,-6.21823 -2.00729,0.34534 -6.48067,-0.11024 -11.64452,-0.67462 -1.63651,1.41715 -1.84622,5.63354 -2.28784,5.7196 -2.46881,-4.39639 -5.14665,-1.45546 -7.68479,-7.5968 2.37808,-0.69838 3.31935,0.0429 3.02112,-2.40516 -1.87844,-0.69226 -0.88164,-1.37909 -2.40517,-0.79195 -3.17071,1.22194 -2.90873,-1.05406 -2.14118,-1.52522 14.92624,-9.16255 24.66224,-3.57116 28.30468,-7.91945 0.24927,-0.29756 -1.32237,3.98996 -0.99726,3.63708 2.09919,-2.27842 8.7598,5.0228 8.50607,4.10638 -0.71289,-2.57484 5.79657,-12.12569 8.79938,-13.46306 4.03213,-1.79578 13.09003,-0.31043 14.66564,-3.54908 2.1811,-7.23765 4.25129,-11.88634 11.8205,-19.12399 8.69928,-4.28311 20.64653,-5.42583 31.14982,-6.10091 0.71619,0.43319 -0.56195,-0.77197 -1.17325,-1.20258 -12.32591,-8.68266 -33.50046,-16.24065 -53.88156,-16.1322 z m 78.10919,52.91362 c 0.27235,1.08801 0.52955,2.1952 0.76261,3.2851 -0.23318,-1.1117 -0.48737,-2.19101 -0.76261,-3.2851 z M 369.39063,289.4432 c -1.68856,0.46071 -2.52522,3.34269 -0.43997,5.01565 10e-6,1e-5 1.34582,-0.54022 1.4079,-0.85061 0.062,-0.31038 0.86255,-1.07904 0.64529,-2.25851 -0.21728,-1.17944 -1.61322,-1.90653 -1.61322,-1.90653 z m 99.697,1.64255 c -1.90836,-0.0123 -4.07001,0.39318 -6.54087,1.34924 -15.81352,6.1188 -14.35458,20.57898 -10.44194,21.49983 -3.45399,3.04741 -5.84689,5.9764 -2.22917,8.68205 1.82213,1.36277 3.22644,-4.34102 3.22644,-4.34102 l 3.49042,-2.87447 c -2.46856,-3.54393 -1.78609,-5.41743 0,-7.30349 5.00582,-5.28607 11.5546,-10.95261 15.39892,-8.21275 3.84432,2.73985 3.3874,6.01382 4.07705,8.21275 -2.49867,-5.88805 -5.61701,-8.41596 -8.30075,-4.83966 -3.38482,4.51056 9.2684,5.10811 1.49589,13.25774 -1.96883,1.11125 -5.48337,1.05512 -5.48495,6.1009 l 4.60501,0.73329 c 0,0 -0.86433,0.83343 -3.10911,2.49315 -3.57756,2.64515 -6.81213,-0.77398 -8.18343,-0.11732 -0.57745,0.27652 -1.64321,2.54294 -3.60775,2.3465 -2.98046,-0.75189 -6.64969,-1.82326 -9.06336,0.61596 -4.08916,4.13244 -7.57479,13.82996 0.23465,13.7857 13.78554,-0.0788 10.63612,-8.24886 20.61989,-10.79391 8.15077,-2.07779 15.79134,-10.96805 16.27885,-20.12126 0.41136,-7.82778 -2.16064,-20.40663 -12.46579,-20.47323 z m -90.84982,19.29595 c 2.53863,-0.0678 3.43862,1.44139 3.18066,3.85947 -0.017,1.73061 -0.1493,1.73674 -1.00612,4.34226 0.21324,-0.20743 -14.03495,-1.97307 -13.30956,3.03618 -0.85845,0.0263 -1.34353,0.036 -1.58389,0.0587 0.002,0.0403 -0.002,0.0761 0,0.11733 0.16426,0.0379 0.31814,0.0891 0,0.14665 -0.002,-0.0529 0.002,-0.0952 0,-0.14665 -0.17651,-0.0408 -0.3735,-0.0821 0,-0.11733 0.11138,-7.2256 -3.28042,-5.29115 -2.72641,-8.26458 7.63544,-0.47593 15.10267,2.26068 15.83749,1.25441 1.27734,-2.8667 1.25938,-0.71429 -0.39217,-4.2864 z m -3.53822,11.20858 c 1.45661,-0.0197 2.53705,0.24857 2.37583,1.75988 -0.017,1.73061 -3.61178,0.37804 -4.46859,2.98356 1.45875,0.99323 2.3797,2.00136 2.35674,2.56005 l -4.89832,-1.8772 c -0.15043,-3.73578 1.45432,-2.45244 1.7892,-5.27963 0.95199,-0.0254 1.97117,-0.13482 2.84514,-0.14666 z m -3.46109,17.33478 c -0.52827,2.4628 -0.19838,3.45769 -1.61322,6.51155 -3.39301,-0.0398 -5.08713,0.26431 -8.1541,1.20258 0.58016,-2.7103 1.67458,-3.62714 0.32265,-7.30349 3.50406,0.28672 6.75755,0.72815 9.44467,-0.41064 z m 98.14245,14.343 c -6.8956,4.48404 -13.82345,8.93342 -19.73995,15.45758 10e-6,10e-6 0.22809,1.10986 -2.63982,5.6316 -2.82737,4.45785 -8.02442,6.8583 -8.65272,12.55379 l 16.07353,-2.72781 c 3.64471,-14.74997 10.86676,-14.72512 14.95896,-30.91516 z"
       id="path4115"
       sodipodi:nodetypes="ccccssscsscsscsccssccccsscscccccccccccccsssssscccsccsccsssccscsccsscscccsscssscccccccscccccccccccccccccccssccc" />
  </g>
</svg>
