<?xml version="1.0" encoding="UTF-8" standalone="no"?>
<!-- Created with Inkscape (http://www.inkscape.org/) -->

<svg
   xmlns:dc="http://purl.org/dc/elements/1.1/"
   xmlns:cc="http://creativecommons.org/ns#"
   xmlns:rdf="http://www.w3.org/1999/02/22-rdf-syntax-ns#"
   xmlns:svg="http://www.w3.org/2000/svg"
   xmlns="http://www.w3.org/2000/svg"
   xmlns:sodipodi="http://sodipodi.sourceforge.net/DTD/sodipodi-0.dtd"
   xmlns:inkscape="http://www.inkscape.org/namespaces/inkscape"
   width="304.59329"
   height="498.96875"
   id="svg10360"
   version="1.1"
   inkscape:version="0.47 r22583"
   sodipodi:docname="Neues Dokument 22">
  <defs
     id="defs10362">
    <inkscape:perspective
       sodipodi:type="inkscape:persp3d"
       inkscape:vp_x="0 : 526.18109 : 1"
       inkscape:vp_y="0 : 1000 : 0"
       inkscape:vp_z="744.09448 : 526.18109 : 1"
       inkscape:persp3d-origin="372.04724 : 350.78739 : 1"
       id="perspective10368" />
    <inkscape:perspective
       id="perspective10378"
       inkscape:persp3d-origin="0.5 : 0.33333333 : 1"
       inkscape:vp_z="1 : 0.5 : 1"
       inkscape:vp_y="0 : 1000 : 0"
       inkscape:vp_x="0 : 0.5 : 1"
       sodipodi:type="inkscape:persp3d" />
  </defs>
  <sodipodi:namedview
     id="base"
     pagecolor="#ffffff"
     bordercolor="#666666"
     borderopacity="1.0"
     inkscape:pageopacity="0.0"
     inkscape:pageshadow="2"
     inkscape:zoom="0.84774848"
     inkscape:cx="152.29665"
     inkscape:cy="249.48438"
     inkscape:document-units="px"
     inkscape:current-layer="layer1"
     showgrid="false"
     inkscape:window-width="1024"
     inkscape:window-height="675"
     inkscape:window-x="-4"
     inkscape:window-y="40"
     inkscape:window-maximized="1" />
  <metadata
     id="metadata10365">
    <rdf:RDF>
      <cc:Work
         rdf:about="">
        <dc:format>image/svg+xml</dc:format>
        <dc:type
           rdf:resource="http://purl.org/dc/dcmitype/StillImage" />
        <dc:title></dc:title>
      </cc:Work>
    </rdf:RDF>
  </metadata>
  <g
     inkscape:label="Ebene 1"
     inkscape:groupmode="layer"
     id="layer1"
     transform="translate(-210.74106,-226.59375)">
    <path
       style="fill:#000000;stroke:none"
       d="m 298.62603,232.3908 c -0.35201,0 -0.96005,0.15548 -1.37357,0.36629 -0.41352,0.21083 -1.0291,0.39681 -1.34305,0.39681 -0.74223,0 -2.45488,0.28834 -4.60911,0.79362 -1.92574,0.45171 -5.25816,1.68709 -9.00454,3.3271 -1.37035,0.59988 -3.23464,1.4323 -4.15124,1.83144 -0.9166,0.39914 -2.80984,1.36897 -4.2123,2.16719 -2.494,1.41949 -3.64187,2.17885 -7.63097,5.09749 -1.08057,0.79059 -2.27291,1.64018 -2.65557,1.89248 -2.13796,1.40959 -8.56029,6.5691 -12.33165,9.92026 -2.48051,2.20414 -7.91944,7.72083 -10.31707,10.43916 -0.89248,1.01187 -2.10223,2.13536 -2.71662,2.53348 -1.07707,0.69793 -1.41071,1.10073 -4.27334,5.18906 -1.79057,2.55724 -3.01592,4.45631 -3.93758,6.07425 -0.57045,1.00142 -1.23575,2.06462 -1.46515,2.38086 -1.17254,1.61651 -1.51762,3.02947 -0.88519,3.60182 0.32104,0.29054 1.82588,1.28128 3.84601,2.53348 0.50178,0.31104 1.18778,0.78818 1.55672,1.06833 0.36895,0.28016 2.22331,1.64861 4.12072,3.05239 1.89741,1.4038 3.9251,2.97117 4.48701,3.47972 0.5619,0.50855 1.07544,0.91572 1.1599,0.91572 0.17631,0 3.84633,3.20511 9.98131,8.72983 2.34112,2.10823 4.52937,4.04033 4.8533,4.30386 0.32391,0.26353 1.67793,1.58211 3.02186,2.89977 1.34392,1.31764 2.51732,2.45859 2.62505,2.564 0.7149,0.69957 3.27591,3.50948 5.43325,5.95216 1.39646,1.58117 3.10051,3.42866 3.78496,4.0902 0.68443,0.66152 1.46828,1.51278 1.73986,1.923 0.27156,0.41021 1.25122,1.5497 2.1672,2.53348 3.86082,4.1466 7.23797,8.11643 8.85192,10.37812 0.3149,0.44126 0.94395,1.32261 1.4041,1.95353 1.00871,1.3831 1.64493,2.60832 1.95352,3.75443 0.12637,0.46924 0.50913,1.41762 0.85467,2.10615 1.04339,2.07915 1.11676,3.00719 0.21367,3.41867 -0.26175,0.11927 -0.63141,0.47672 -0.82414,0.79362 -0.92151,1.51533 -5.74334,4.31342 -8.39407,4.88382 -0.8433,0.18147 -2.24796,0.50503 -3.14396,0.73258 -1.52962,0.38846 -2.0762,0.42715 -9.00454,0.42733 -6.65266,1.8e-4 -7.44662,0.0348 -7.99725,0.33576 -0.3359,0.18361 -0.6616,0.43461 -0.73258,0.54943 -0.0709,0.11482 -0.0745,0.84885 0,1.64829 0.13413,1.43133 0.15758,1.48204 1.12939,2.44191 1.47759,1.45945 3.59441,2.39267 7.50887,3.35763 l 3.23553,0.79362 3.57129,-0.0915 c 3.50405,-0.0984 3.64247,-0.0966 5.67744,-0.79362 1.14245,-0.39129 2.14923,-0.79909 2.25877,-0.88519 0.10951,-0.0861 0.90414,-0.41318 1.77038,-0.73257 0.86624,-0.31939 2.60811,-1.12406 3.84601,-1.80091 3.10116,-1.69563 4.78991,-2.02688 6.1353,-1.15991 0.54101,0.34863 1.39812,2.13248 1.86196,3.84601 0.29703,1.09737 0.32247,1.42598 0.12209,2.59453 -0.12667,0.73865 -0.51459,2.00517 -0.85467,2.8082 -0.5877,1.38766 -0.60049,1.56859 -0.57995,3.75443 0.014,1.48357 0.12731,2.72536 0.33576,3.51025 0.59806,2.25215 0.31909,5.37948 -0.67152,7.35625 -0.5279,1.05347 -0.46155,1.65696 0.27471,2.35034 0.72312,0.681 2.89422,1.44073 4.05968,1.43462 0.62014,-0.003 0.92014,-0.14376 1.70933,-0.85467 1.28583,-1.15823 2.65272,-2.01989 4.76173,-3.05238 1.73292,-0.84839 2.31923,-0.99332 2.77767,-0.70205 0.33949,0.21571 0.78402,1.61327 1.09886,3.41867 0.32138,1.84307 0.11699,2.75439 -0.88519,4.33439 -0.32562,0.5133 -0.55094,1.11848 -0.51891,1.34305 0.0545,0.3823 0.19231,0.40658 2.0451,0.45786 2.31498,0.0641 2.44415,0.0154 4.79225,-2.07563 2.87483,-2.56019 5.94712,-8.03463 7.05101,-12.57583 0.15511,-0.63809 -0.32637,-0.73504 -1.55672,-0.27472 -1.77929,0.66573 -2.33465,0.44813 -1.73986,-0.70204 0.39446,-0.76279 1.30808,-1.2947 2.8082,-1.64829 1.74522,-0.41136 2.81393,-0.37431 4.57858,0.18314 1.60013,0.50549 2.008,0.86787 1.89248,1.67881 -0.0507,0.3554 -0.23439,0.45123 -1.15991,0.57996 -0.84437,0.11743 -1.23836,0.0752 -1.67881,-0.15262 -0.82276,-0.42547 -1.49314,-0.36368 -1.83143,0.15262 -0.15806,0.24121 -0.4218,1.09645 -0.57996,1.923 -0.37607,1.96562 -0.77775,3.032 -2.28929,5.95216 -1.4562,2.81331 -2.9328,5.00679 -4.30386,6.34896 -0.99323,0.97232 -1.2257,1.67406 -0.73258,2.1672 0.29263,0.29259 1.2441,0.29005 2.07563,0 0.95411,-0.3326 2.65755,-1.7289 3.38815,-2.74715 0.35235,-0.49107 1.13209,-1.42127 1.70933,-2.07563 1.07051,-1.21343 2.24279,-3.26195 2.65558,-4.63962 0.55075,-1.838 1.37558,-0.35539 1.19043,2.13667 -0.35095,4.72411 -5.8313,13.10327 -9.95078,15.23141 -0.7254,0.37473 -1.31253,0.99178 -1.31253,1.37357 0,0.65653 1.15093,2.35873 2.1672,3.23553 0.56933,0.49119 1.42671,1.00555 1.98405,1.19043 1.49336,0.49546 1.61456,1.22657 0.42733,2.47244 -1.90749,2.00166 -4.71051,7.17104 -4.91434,9.06559 -0.0682,0.6335 0.0771,1.12 0.79362,2.59453 0.96764,1.99131 1.04601,2.34977 0.57996,3.3271 -0.24102,0.50538 -0.58795,0.77115 -1.4041,1.12938 -2.47396,1.0859 -3.54991,1.06553 -6.62368,-0.0611 -3.8053,-1.39468 -7.66515,-2.28189 -9.79816,-2.28929 -0.78572,-0.003 -1.13081,0.11473 -1.98406,0.67153 -0.57622,0.37601 -1.40978,0.85265 -1.83143,1.06833 -1.34299,0.6869 -1.96536,1.4729 -1.43462,1.80091 0.10831,0.0669 0.60105,-0.0934 1.09886,-0.33576 1.84095,-0.89646 4.67941,-0.37064 4.82277,0.88519 l 0.061,0.54943 -1.03781,-0.18314 c -1.53875,-0.25064 -3.07112,-0.19583 -3.63234,0.12209 -0.27573,0.15622 -0.95863,0.55276 -1.5262,0.85467 -1.31124,0.69747 -1.6574,0.98272 -2.10614,1.86196 -0.73748,1.44496 -0.24764,1.85834 1.12938,0.94624 1.79434,-1.18854 3.80297,-1.44714 4.67015,-0.57996 0.72564,0.72563 0.41474,1.02682 -1.22095,1.15991 -1.61872,0.13172 -3.00997,0.68808 -4.18177,1.67881 -0.52934,0.44759 -0.61088,0.60519 -0.42734,0.79362 0.18547,0.19037 0.44372,0.17364 1.25148,-0.0915 1.99223,-0.65413 3.74407,-0.56214 6.89839,0.36629 1.19042,0.35037 5.55327,0.74014 6.56264,0.57995 2.91136,-0.46203 4.58668,-1.44981 7.78358,-4.54806 2.52916,-2.45107 4.09686,-3.77777 4.45649,-3.78495 0.11722,-0.003 0.43852,-0.1907 0.70205,-0.39682 0.57666,-0.45106 0.85675,-0.44272 2.47243,-0.0915 3.51707,0.76439 4.61399,0.83999 5.46377,0.39681 0.7504,-0.39137 1.16953,-0.35665 1.64829,0.1221 0.32483,0.32483 0.38817,0.54158 0.30524,1.1599 -0.11955,0.89136 -0.35201,1.08898 -1.282,1.09886 -0.36894,0.004 -1.01271,0.17462 -1.43462,0.36629 -1.24553,0.56584 -4.0842,2.37788 -6.2574,3.99863 -2.75049,2.0513 -3.16489,2.40293 -8.60773,7.23416 -2.8434,2.52386 -9.35036,9.07499 -11.11069,11.17173 -1.36878,1.6304 -3.71626,4.98474 -3.90705,5.58587 -0.0653,0.20594 -0.36983,0.455 -0.67153,0.57995 -0.90192,0.37359 -2.19302,2.2294 -4.0902,5.79954 -2.31216,4.35107 -4.66101,10.35003 -4.51753,11.59907 0.0697,0.60695 -0.16054,0.59277 3.20501,0.24419 3.0443,-0.31532 3.97001,-0.11562 5.79953,1.31253 2.35842,1.84094 5.5551,4.63454 7.72254,6.74577 2.20501,2.14782 2.24004,2.2214 1.95353,3.78496 l -0.15262,0.79362 0.88519,0.54943 c 0.49884,0.29492 1.67865,1.00749 2.59453,1.58724 0.91587,0.57979 2.14332,1.30359 2.74715,1.61777 0.91417,0.47565 1.13848,0.68983 1.282,1.25148 0.4105,1.60648 0.57563,3.37038 0.45786,4.67015 l -0.12209,1.37357 0.85466,0.73258 c 1.08335,0.92731 1.27651,1.3375 1.28201,2.50296 0.006,1.29387 -0.39159,2.72313 -1.15991,4.12072 -0.66051,1.20146 -1.15638,1.55671 -2.25877,1.55671 -0.61813,0 -0.93771,0.32198 -1.61776,1.67882 -0.43492,0.86775 -0.6813,1.08279 -1.5262,1.46514 -1.68118,0.76081 -3.62814,1.06834 -7.08153,1.06834 -3.36369,0 -3.44596,0.0214 -3.69339,1.00729 -0.1641,0.65383 -1.0093,1.17217 -2.38086,1.46514 -0.57977,0.12385 -1.50524,0.35121 -2.07563,0.51891 -0.87041,0.2559 -1.53278,0.28497 -4.12072,0.15262 -1.69596,-0.0867 -3.87406,-0.14556 -4.82277,-0.1221 -0.9487,0.0235 -2.38389,-0.0414 -3.17448,-0.15262 -0.79059,-0.11114 -2.03979,-0.29484 -2.77768,-0.39681 -1.83636,-0.25366 -12.58882,0.35095 -16.84917,0.94624 -1.36169,0.19025 -2.58091,0.3578 -5.15854,0.641 -2.26503,0.24883 -1.98701,4.3e-4 -5.49429,4.67016 -0.57977,0.77191 -1.56525,2.05477 -2.19772,2.86924 -0.63248,0.81449 -1.54624,2.0125 -2.0451,2.65558 -1.72506,2.22373 -2.86529,3.85802 -3.3271,4.76172 -0.32184,0.62978 -0.70538,1.019 -1.22096,1.282 -0.57033,0.29098 -1.06947,0.8722 -2.16719,2.53348 -1.30512,1.97508 -2.00029,3.21574 -4.91435,8.8214 -2.34712,4.51507 -6.04345,12.98051 -7.02049,16.05556 -0.1842,0.57981 -0.48996,1.37094 -0.67152,1.73986 -0.18154,0.36892 -0.38964,1.02072 -0.45786,1.46515 -0.0682,0.44442 -0.42705,1.48614 -0.79362,2.31981 -0.36654,0.83367 -0.76761,1.99738 -0.88519,2.564 -0.1176,0.56663 -0.39944,1.37924 -0.641,1.80091 -0.24156,0.42167 -0.5736,1.18228 -0.73258,1.70934 -0.15897,0.52706 -0.59204,1.81522 -0.97676,2.86924 -0.78058,2.13882 -1.7999,6.02366 -2.50296,9.55398 -0.25586,1.28473 -0.72371,3.41364 -1.03781,4.7312 -0.3141,1.31765 -0.75497,3.59117 -0.97676,5.06696 -0.22179,1.47579 -0.52064,3.47723 -0.67153,4.42596 -0.15087,0.94873 -0.37781,2.65587 -0.48838,3.81548 -0.25744,2.69968 -1.04886,8.46835 -1.77039,12.94212 -0.2125,1.31766 -0.43765,3.4746 -0.5189,4.79225 -0.0813,1.31766 -0.25238,3.43567 -0.39681,4.70068 -0.33702,2.95168 -0.33743,20.77069 0,24.72433 0.12575,1.4758 0.29098,3.71039 0.39681,4.97539 0.36369,4.3468 1.08553,9.51998 1.83143,13.21684 0.25501,1.26384 0.45786,2.50999 0.45786,2.74715 0,0.82185 1.14312,4.00878 1.58724,4.42596 0.49393,0.46406 2.62956,1.2231 4.63963,1.64829 5.64662,1.19458 8.36041,1.4817 17.24599,1.923 7.12219,0.35369 10.27679,0.2693 11.53802,-0.30524 0.64668,-0.29459 0.92512,-0.31954 1.4041,-0.15262 0.51033,0.17797 0.74581,0.56643 1.80091,2.74715 0.67108,1.38701 1.45314,3.1171 1.73986,3.87653 0.2867,0.75934 0.68114,1.60253 0.88519,1.86196 0.4196,0.53341 1.11561,1.84252 5.31115,10.1034 3.31772,6.5324 4.28373,8.34274 5.03644,9.4624 0.28347,0.42167 0.69376,1.20396 0.91572,1.70934 0.22196,0.50528 0.61362,1.18911 0.85467,1.52619 0.62451,0.87323 1.62766,2.54428 2.19771,3.66287 0.14319,0.28089 0.44322,0.79683 0.70205,1.25148 l 122.33968,0 c -0.15758,-0.83441 -0.32317,-1.72449 -0.42734,-2.47244 -0.16882,-1.21226 -0.46432,-2.93747 -0.67152,-3.81548 -0.20719,-0.87801 -0.39681,-1.816 -0.39681,-2.07562 0,-0.25973 -0.11614,-1.14096 -0.27472,-1.95353 -0.42388,-2.17184 -0.61358,-3.32754 -0.94624,-5.67744 -0.16415,-1.15962 -0.42169,-2.97503 -0.57995,-4.02915 -0.15828,-1.05413 -0.3812,-2.52821 -0.48838,-3.26606 -0.10715,-0.73794 -0.32915,-2.06483 -0.48838,-2.96081 -0.36013,-2.0264 -0.83487,-6.42281 -1.03782,-9.5845 -0.0846,-1.31765 -0.22825,-2.96291 -0.30524,-3.66286 -0.12632,-1.14829 -0.11221,-1.27698 0.21367,-1.37358 0.19864,-0.0586 1.42116,-0.17718 2.6861,-0.24419 3.7821,-0.19994 10.10323,-1.19385 14.8346,-2.35034 0.7906,-0.1933 2.64495,-0.63714 4.12073,-0.97676 2.99494,-0.68911 5.07244,-1.29197 5.43325,-1.58724 0.32999,-0.27008 0.29577,-1.13881 -0.0611,-1.64829 -1.92544,-2.74905 -10.07288,-19.23409 -10.07288,-20.39009 0,-0.0947 -0.27514,-0.92573 -0.641,-1.86196 -0.36586,-0.93632 -1.01437,-3.03251 -1.43462,-4.67015 -0.42026,-1.63764 -1.08323,-3.78017 -1.46515,-4.76172 -0.38192,-0.98146 -0.84378,-2.41163 -1.03781,-3.17449 -0.19403,-0.76295 -0.60209,-1.87397 -0.88519,-2.47243 -0.37479,-0.79225 -0.56178,-1.58832 -0.67153,-2.86924 -0.0829,-0.96768 -0.27115,-2.01351 -0.42733,-2.31982 -0.15619,-0.30631 -0.46528,-1.45723 -0.70205,-2.564 -0.23678,-1.10687 -0.68963,-2.58125 -1.00729,-3.26606 -0.39918,-0.86062 -0.61927,-1.61102 -0.67152,-2.47243 -0.084,-1.38496 -0.44643,-3.3313 -1.09886,-5.64692 -0.28511,-1.01183 -0.4833,-2.29881 -0.54943,-3.78496 l -0.0915,-2.25876 0.51891,0 c 0.67607,0 0.7578,-0.10315 1.61777,-2.19772 0.38951,-0.94873 0.91189,-2.18302 1.1599,-2.71663 0.53059,-1.14164 0.82082,-3.4594 0.54943,-4.57858 -0.10224,-0.42157 -0.50487,-1.8307 -0.88519,-3.14396 -0.38033,-1.31326 -0.70205,-2.81088 -0.70205,-3.3271 0,-1.19898 0.47923,-3.07539 1.03781,-4.05967 1.56551,-2.75868 2.51976,-4.26099 3.23553,-5.15854 0.45039,-0.56476 1.35992,-1.81658 2.0451,-2.74715 0.68518,-0.93066 1.89134,-2.29451 2.65558,-3.05238 1.30196,-1.29119 1.37669,-1.44986 1.37357,-2.22825 -0.002,-0.45683 -0.14413,-1.42925 -0.30524,-2.16719 -0.16109,-0.73785 -0.39717,-2.02591 -0.54943,-2.86924 -0.15224,-0.84324 -0.54993,-2.4339 -0.85466,-3.54077 -0.96304,-3.49789 -1.23342,-6.07328 -0.67153,-6.2574 0.41429,-0.13577 1.37452,1.76946 1.89248,3.75444 0.64252,2.46232 2.31414,7.37071 2.77767,8.14987 0.18812,0.31628 0.41298,0.80481 0.48839,1.06834 0.25941,0.90663 1.71028,4.09938 2.01457,4.45648 0.5774,0.67749 3.43838,0.10901 7.08154,-1.40409 0.57977,-0.24087 1.25849,-0.49058 1.49567,-0.57996 0.57364,-0.21616 0.55964,-0.81179 -0.0611,-1.89248 -0.27243,-0.47431 -0.70283,-1.38212 -0.94624,-2.01457 -1.4695,-3.81827 -2.0357,-5.5152 -2.31981,-6.83735 -0.31319,-1.45743 -0.32272,-1.51975 0.0915,-2.8082 0.2326,-0.72329 0.52142,-1.41264 0.61048,-1.55671 0.34915,-0.56496 0.7078,-0.0105 1.03781,1.55671 0.38394,1.82372 1.64338,6.14775 2.31981,7.99726 1.29603,3.5434 2.27567,5.88373 2.59453,6.22687 0.19591,0.21088 0.57046,1.04084 0.85467,1.83143 1.03604,2.88194 2.24438,5.14139 6.95944,13.12526 1.71233,2.89933 1.88993,3.17449 2.25877,3.17449 0.7371,0 3.2571,-2.29706 6.95944,-6.34897 2.15572,-2.35927 4.45712,-4.80079 5.09749,-5.43325 0.64037,-0.63245 1.6696,-1.76511 2.28929,-2.50296 1.28578,-1.53107 4.32043,-4.95185 6.98996,-7.84463 1.98447,-2.15044 8.09227,-8.07247 12.08746,-11.72117 1.37048,-1.25159 2.90311,-2.7387 3.44919,-3.35762 13.31629,-19.41357 50.81936,-28.19365 35.77398,-53.41678 -14.37445,-24.09834 -32.64064,-44.2189 -36.87283,-54.17987 -0.26221,-0.49426 -0.42734,-0.84955 -0.42734,-0.94624 0,-0.25061 -2.92546,-5.37334 -3.57129,-6.25739 -0.34654,-0.47437 -0.9569,-1.53757 -1.37358,-2.38086 -0.41667,-0.84329 -1.12016,-2.18905 -1.55671,-2.99134 l -0.79362,-1.46515 -0.0916,-5.83006 c -0.0932,-6.42975 -0.29364,-8.39852 -1.1599,-10.6223 -0.7352,-1.88731 -1.64121,-3.07856 -2.6861,-3.54077 -0.98024,-0.43361 -3.29893,-0.76101 -5.64692,-0.7631 -1.45235,-0.003 -1.7373,-0.0587 -2.31981,-0.48838 -0.36173,-0.26687 -1.01998,-0.58226 -1.49567,-0.73257 -0.4757,-0.15035 -1.83181,-0.63946 -2.99134,-1.06834 -1.15953,-0.42891 -3.62651,-1.29606 -5.4943,-1.923 -1.86781,-0.62697 -4.32733,-1.51645 -5.46377,-1.98406 -4.25893,-1.75228 -7.53153,-3.06532 -10.13393,-4.05967 -5.17176,-1.97611 -7.39139,-2.92638 -9.61502,-4.15125 -1.23334,-0.67936 -2.6525,-1.43317 -3.14396,-1.64829 -1.31561,-0.5758 -3.40768,-2.22732 -4.24281,-3.35762 -0.86308,-1.16812 -0.86811,-1.82429 -0.0305,-3.47972 0.46439,-0.91786 0.49174,-1.14728 0.36629,-2.22825 -0.16465,-1.41855 -0.86096,-3.53502 -1.5262,-4.67015 -0.56823,-0.96963 -1.24028,-1.45073 -4.21229,-2.93029 -1.32593,-0.6601 -2.42617,-1.43337 -3.4492,-2.44191 -0.47848,-0.47171 -0.96353,-0.85467 -1.06833,-0.85467 -0.24808,0 -0.24809,-1.09818 0,-1.25148 0.10461,-0.0647 0.72633,-0.201 1.37357,-0.30523 1.89932,-0.30589 4.50143,-2.38159 5.43325,-4.33439 0.4988,-1.04536 0.52705,-1.26936 0.54943,-4.02916 0.0206,-2.53623 -0.0147,-2.94443 -0.30524,-3.23553 -0.46387,-0.46466 -0.68855,-0.21491 -1.09886,1.37358 -0.44666,1.72926 -0.97955,2.79842 -2.0451,3.93758 -0.87711,0.9377 -2.02068,1.4834 -2.62505,1.25148 -0.47796,-0.18341 -0.35379,-0.63751 0.24419,-0.8852 0.79021,-0.32732 1.7852,-1.45342 2.47243,-2.77767 0.56252,-1.08393 0.61009,-1.2682 0.61048,-3.26605 2.9e-4,-1.60276 -0.0856,-2.22163 -0.30524,-2.50296 -0.3446,-0.44137 -0.16563,-0.60346 -2.07562,2.25877 -3.01388,4.51648 -3.58084,4.95564 -5.70796,4.36491 -1.08973,-0.30264 -0.94726,-0.73753 0.5189,-1.49567 1.57295,-0.81335 2.56543,-1.93888 3.11344,-3.51024 0.84965,-2.43639 1.27995,-6.09058 0.76309,-6.41002 -0.13212,-0.0817 -0.30924,0.008 -0.42733,0.21367 -0.74032,1.29363 -3.33689,2.96082 -4.60911,2.96082 -2.17331,0 -6.30086,-1.65721 -8.51616,-3.41868 -1.66863,-1.3268 -7.60713,-7.42135 -8.88244,-9.12664 -1.35972,-1.81812 -3.05895,-4.88167 -5.28063,-9.49292 -0.73641,-1.52847 -1.67667,-3.26729 -2.10615,-3.87653 -0.42946,-0.60924 -0.93271,-1.38805 -1.09886,-1.70934 -0.16613,-0.32128 -0.59818,-0.9726 -0.97676,-1.46514 -0.37859,-0.49255 -0.93907,-1.4515 -1.25148,-2.13667 -1.16604,-2.55736 -4.39865,-6.28526 -6.6542,-7.6615 -0.57976,-0.35375 -1.31575,-0.79876 -1.61777,-1.00728 -0.34765,-0.24004 -1.21544,-0.4825 -2.35034,-0.641 -0.98595,-0.13771 -1.87531,-0.29908 -1.98405,-0.36629 -0.62054,-0.38352 0.0467,-1.91376 2.01458,-4.70068 2.93131,-4.1513 3.12953,-4.76645 4.33439,-11.99588 0.35355,-2.12141 0.31859,-7.08844 -0.061,-8.79087 -0.17648,-0.79132 -0.2683,-1.81555 -0.21367,-2.47244 0.085,-1.02197 0.0674,-1.16238 -0.42733,-1.67881 -0.64027,-0.66836 -2.29554,-1.31253 -3.3271,-1.31253 -1.13253,0 -1.87803,0.93525 -2.77768,3.54077 -0.39986,1.15814 -0.87106,2.48646 -1.06833,2.96082 -0.19727,0.47434 -0.41929,1.07952 -0.48838,1.34305 -0.18916,0.72166 -1.41334,3.352 -2.01458,4.36491 -0.29176,0.49157 -0.87998,1.52088 -1.31253,2.25877 -0.82963,1.41523 -2.71323,3.38006 -3.90705,4.0902 -0.74025,0.44033 -3.86495,0.89801 -4.57858,0.67152 -0.19441,-0.0617 -0.70835,-0.55334 -1.12939,-1.09886 -0.42103,-0.54551 -1.33544,-1.73772 -2.04509,-2.65557 -0.70963,-0.91787 -1.54239,-2.05047 -1.83144,-2.50296 -0.28904,-0.4525 -0.99865,-1.46818 -1.58724,-2.25877 -0.86093,-1.15639 -3.55946,-5.08434 -6.31844,-9.21821 -0.21082,-0.31587 -0.66753,-0.93218 -1.00729,-1.37357 -0.33975,-0.4414 -0.84841,-1.24332 -1.12938,-1.77039 -0.28098,-0.52706 -0.94686,-1.5514 -1.49567,-2.28929 -1.58972,-2.13738 -2.45806,-3.52428 -3.38815,-5.3722 -0.4775,-0.9487 -1.44548,-2.72534 -2.13667,-3.93758 -2.51377,-4.40865 -2.79916,-4.89979 -3.63234,-6.50158 -0.46607,-0.89601 -1.07841,-2.00741 -1.37358,-2.47243 -0.29516,-0.46503 -0.7363,-1.41164 -0.97676,-2.10615 -0.24045,-0.6945 -1.18979,-2.83379 -2.10615,-4.7312 -0.91635,-1.89742 -1.97699,-4.2487 -2.35033,-5.25011 -0.37335,-1.00141 -0.74265,-1.90917 -0.82415,-2.01457 -0.27953,-0.36155 -2.26159,-5.57869 -2.564,-6.74578 -0.16631,-0.64175 -0.47135,-1.58884 -0.70205,-2.10615 -1.9975,-4.47915 -4.2123,-10.4472 -4.2123,-11.41592 0,-0.20145 -0.12199,-0.64174 -0.27471,-1.00729 -0.23829,-0.57031 -0.3665,-0.67153 -0.91572,-0.67153 z m -8.30249,9.98131 c 0.44661,0.0973 10.83597,13.50249 10.83597,13.97993 0,0.29959 -0.0808,0.38194 -0.39681,0.33577 -0.2766,-0.0404 -1.15778,-1.00485 -2.59453,-2.83872 -1.99077,-2.54103 -2.74714,-3.27254 -2.74714,-2.68611 0,0.12019 0.22902,0.53751 0.5189,0.91572 0.28989,0.37821 0.70489,0.97133 0.91572,1.31253 0.74683,1.20867 2.23886,3.34257 2.41138,3.44919 0.0962,0.0595 0.18315,0.36151 0.18315,0.67153 0,1.07645 -0.62394,0.62943 -3.17449,-2.22824 -2.22424,-2.49206 -2.96081,-3.12887 -2.96081,-2.59453 0,0.0951 1.02239,1.49566 2.28929,3.11343 2.38311,3.04314 2.68773,3.67042 1.73986,3.75444 -0.41873,0.0371 -1.163,-0.81891 -5.76901,-6.74578 -2.9326,-3.77357 -5.27896,-7.00487 -5.31115,-7.26468 -0.0405,-0.32677 0.0898,-0.54192 0.42733,-0.76309 0.53147,-0.34824 1.39549,-0.41552 1.49567,-0.1221 0.14211,0.41632 4.64709,5.34168 4.88382,5.34168 0.1403,0 0.24419,-0.0525 0.24419,-0.1221 0,-0.16501 -3.11086,-4.7444 -3.81548,-5.61639 -0.53527,-0.66242 -0.50718,-1.40526 0.061,-1.70934 0.24967,-0.13362 0.59436,-0.21989 0.7631,-0.18314 z m -6.6542,4.82277 c 0.24979,0.0143 0.52592,0.14849 1.06833,0.39681 0.57241,0.26206 1.45599,0.86631 1.95353,1.34305 0.72859,0.69811 0.90497,0.96724 0.85467,1.4041 -0.0444,0.38578 -0.21701,0.57518 -0.57996,0.70205 -0.42527,0.14865 -0.61427,0.0977 -1.12938,-0.33576 -1.24761,-1.04981 -2.06063,-0.13558 -0.97676,1.09886 0.54457,0.62025 0.68472,0.64846 1.98405,0.73257 1.61621,0.10462 2.75271,0.56591 3.9681,1.58724 1.61297,1.35545 3.57287,4.28331 4.02915,6.0132 0.33009,1.25148 -0.0241,2.29582 -0.88519,2.65558 -0.96829,0.40458 -1.80406,0.17536 -3.20501,-0.88519 -2.00224,-1.51574 -2.63473,-2.58485 -1.98405,-3.23553 0.40228,-0.40229 1.00835,-0.24667 1.83143,0.45786 1.01338,0.86741 1.62198,0.84456 1.70934,-0.0611 0.0493,-0.51154 -0.0782,-0.77083 -0.7631,-1.49567 -0.80526,-0.8523 -0.86313,-0.87445 -2.31981,-1.03781 -2.30363,-0.25834 -3.64821,-0.96692 -5.06696,-2.6861 -1.68732,-2.04466 -2.54449,-4.29541 -2.10615,-5.55535 0.1722,-0.49492 0.42091,-0.7164 0.94624,-0.91572 0.16318,-0.0619 0.30846,-0.12613 0.42734,-0.15261 0.0892,-0.0198 0.16092,-0.0353 0.24419,-0.0305 z m -3.99863,3.41868 c 0.43141,0.0126 10.84787,13.3678 10.92754,14.01045 0.0621,0.50122 -0.62751,1.0078 -1.19043,0.88519 -0.47696,-0.10387 -10.83597,-13.49895 -10.83597,-14.01045 0,-0.23857 0.1569,-0.54076 0.36629,-0.67153 0.2094,-0.13077 0.54668,-0.2191 0.73257,-0.21366 z m -5.00592,3.846 c 0.17999,0.0347 2.12033,2.33575 4.30387,5.12801 2.67208,3.41702 4.1175,5.11555 4.39544,5.15854 0.24684,0.0382 0.68985,-0.1657 1.12938,-0.51891 0.40443,-0.32502 0.92354,-0.61048 1.12938,-0.61048 0.44729,0 2.57043,2.70403 2.47244,3.14396 -0.10498,0.47132 -3.25239,2.84099 -3.69339,2.77768 -0.49337,-0.0708 -11.02477,-13.52067 -11.01912,-14.07151 0.002,-0.21082 0.2252,-0.54094 0.48838,-0.73257 0.26317,-0.19163 0.61362,-0.30938 0.79362,-0.27472 z m -4.63962,3.5713 c 0.79063,0.0817 2.21374,1.52691 7.44782,6.62368 2.93422,2.85725 5.39794,5.21496 5.4943,5.2501 0.30349,0.11067 0.21287,0.92071 -0.15262,1.25148 -0.5904,0.5343 -1.40759,0.41645 -2.13667,-0.33576 -0.78275,-0.80759 -1.3367,-0.86316 -2.22825,-0.18315 -0.7939,0.60555 -0.83404,1.08965 -0.18314,2.22825 0.61911,1.083 0.60673,1.36473 -0.0915,1.86195 -1.06616,0.75917 -0.56239,1.48048 -6.16582,-8.51616 -3.21857,-5.742 -3.60182,-6.49502 -3.60182,-6.86787 0,-0.16484 0.28847,-0.52473 0.641,-0.79362 0.39996,-0.30506 0.61738,-0.55608 0.97676,-0.5189 z m -5.12801,4.05967 c 0.49943,0 10.98859,13.40137 10.98859,14.04098 0,0.47835 -0.9089,1.282 -1.43462,1.282 -0.36993,0 -10.91352,-13.47229 -10.9886,-14.04098 -0.0388,-0.29357 0.1243,-0.56293 0.51891,-0.85467 0.31672,-0.23415 0.71692,-0.42733 0.91572,-0.42733 z m 8.30249,1.61777 c -0.26846,0.16592 -0.31709,0.0686 0.67152,1.77038 0.48233,0.83029 0.95611,1.64279 1.03782,1.80091 0.34245,0.66264 1.81011,0.31187 1.67881,-0.39681 -0.0828,-0.44701 -3.15015,-3.32158 -3.38815,-3.17448 z m -12.2706,1.77038 c 0.22837,-0.0104 0.44855,0.0272 0.70205,0.0915 1.39465,0.35401 3.46056,2.43171 4.51753,4.51754 0.26465,0.52227 0.59619,1.47642 0.73258,2.13667 0.21655,1.04846 0.34681,1.24225 0.85467,1.46514 1.51012,0.66275 5.46377,3.97558 5.46377,4.57858 0,0.49599 -0.9524,1.25148 -1.55672,1.25148 -0.23025,0 -1.15602,-0.6236 -2.13667,-1.46514 -2.51965,-2.16223 -3.0385,-2.53349 -3.54077,-2.53349 -0.89069,0 -0.65184,0.53047 1.282,2.99134 1.062,1.35143 1.92301,2.64696 1.92301,2.86925 0,0.2223 -0.16478,0.55021 -0.36629,0.73257 -0.8578,0.7763 -1.05264,0.56967 -6.62368,-6.56263 -2.90206,-3.71538 -5.28063,-6.91272 -5.28063,-7.11206 0,-0.21784 0.53439,-0.81177 1.34305,-1.46515 1.31359,-1.06133 2.00101,-1.46457 2.6861,-1.49567 z m 36.62865,0.641 c 0.37805,0.008 2.68934,2.8789 13.00317,16.02503 8.76172,11.16782 12.5769,16.15033 12.60635,16.51342 0.0376,0.46305 -0.40731,0.8602 -3.87653,3.63234 -2.65093,2.11827 -4.02361,3.11974 -4.33439,3.11343 -0.37373,-0.008 -2.735,-2.93708 -13.00317,-16.02503 -8.74575,-11.14746 -12.57646,-16.15098 -12.60635,-16.51341 -0.0383,-0.46325 0.37753,-0.85902 3.846,-3.63234 2.66643,-2.13204 4.0499,-3.11979 4.36492,-3.11344 z m -35.52979,3.05239 c -0.59351,0 -1.29387,0.47103 -1.282,0.85467 0.004,0.11542 0.44575,0.7696 0.97676,1.43462 0.53101,0.66502 1.08446,1.24844 1.25148,1.31253 0.43731,0.1678 1.00729,-0.62808 1.00729,-1.4041 0,-0.91149 -1.13042,-2.19772 -1.95353,-2.19772 z m -6.92892,0.57995 c 0.48414,-8.6e-4 2.38086,2.2857 2.38086,2.86925 0,0.21745 -0.43928,0.68496 -1.06833,1.1599 -0.57977,0.43773 -1.03781,0.946 -1.03781,1.12939 0,0.44167 1.09748,1.73986 1.46514,1.73986 0.15906,0 0.64862,-0.30258 1.09886,-0.67153 1.12134,-0.91885 1.58946,-0.85408 2.47244,0.30524 0.98371,1.2916 0.94018,1.6946 -0.24419,2.56401 -0.52706,0.38689 -0.97677,0.82776 -0.97677,0.97676 0,0.39719 1.75778,2.59453 2.07562,2.59453 0.14921,0 0.75713,-0.41084 1.37358,-0.88519 0.61644,-0.47436 1.2506,-0.85467 1.4041,-0.85467 0.3843,0 2.25876,2.45466 2.25876,2.96081 0,0.50922 -3.33114,3.17343 -3.9681,3.17449 -0.32954,5.7e-4 -1.62462,-1.49889 -5.76901,-6.80683 -2.92942,-3.75186 -5.34219,-6.96785 -5.3722,-7.14258 -0.0355,-0.20632 0.5536,-0.80734 1.70933,-1.70934 0.97872,-0.76385 1.97017,-1.40371 2.19772,-1.4041 z m -6.07425,4.91435 c 0.31292,0.013 0.65214,0.14772 1.09886,0.36628 1.7176,0.84034 4.24303,3.87024 5.21958,6.28792 0.54526,1.34995 0.47396,2.24176 -0.24419,2.99134 -0.26747,0.27919 -0.48838,0.5673 -0.48838,0.641 0,0.0738 0.79949,1.19193 1.80091,2.47243 1.00141,1.2805 1.83143,2.49496 1.83143,2.6861 0,0.40788 -0.63491,0.78765 -1.15991,0.70205 -0.51826,-0.0845 -10.90773,-13.4437 -10.89702,-14.01045 0.005,-0.28482 0.30418,-0.68857 0.91572,-1.15991 0.92007,-0.70914 1.40148,-0.99835 1.923,-0.97676 z m -4.70067,3.35762 c 0.0707,-0.0135 0.15596,-0.0127 0.21366,0 0.39909,0.0876 11.01912,13.76815 11.01912,14.1936 0,0.3892 -0.92283,0.7095 -1.12938,0.39681 -0.76383,-1.15634 -4.57657,-5.79953 -4.76173,-5.79953 -0.40631,0 -0.27408,0.28962 0.79362,1.86195 0.56235,0.82811 1.4701,2.1608 2.01458,2.96082 1.03887,1.52644 1.28256,2.47243 0.641,2.47243 -0.20354,0 -1.37942,-1.14267 -2.83872,-2.77767 -1.36423,-1.52848 -2.60375,-2.77767 -2.74715,-2.77767 -0.41819,0 -0.15907,0.37917 1.95353,3.08291 2.65259,3.39481 2.82949,3.81548 1.77039,3.81548 -0.34957,0 -1.49715,-1.39505 -5.67744,-6.74577 -2.88829,-3.69692 -5.27982,-6.90741 -5.31116,-7.14259 -0.0314,-0.23539 0.1073,-0.58396 0.30524,-0.7631 0.35934,-0.32519 1.58724,-0.43803 1.58724,-0.15262 0,0.083 0.38449,0.59191 0.88519,1.12939 0.5007,0.53748 1.56615,1.71711 2.35034,2.62505 0.78417,0.90792 1.54063,1.64829 1.67882,1.64829 0.30197,0 0.32048,-0.4923 0.0305,-0.67153 -0.18495,-0.1143 -1.36778,-1.84884 -2.35034,-3.41867 -0.20509,-0.32764 -0.65895,-1.00199 -1.00729,-1.46515 -0.34834,-0.46316 -0.641,-1.01028 -0.641,-1.25147 0,-0.42608 0.72566,-1.12686 1.22096,-1.22096 z m 6.16582,0.15262 c -1.0058,0 -0.90315,0.50741 0.39681,2.13667 1.07082,1.34205 1.62706,1.62939 1.77038,0.88519 0.11989,-0.62256 -0.14417,-1.19496 -0.94624,-2.10614 -0.49833,-0.56613 -0.9482,-0.91572 -1.22095,-0.91572 z m 31.16487,0.39681 c 0.37806,0.008 2.68934,2.8789 13.00317,16.02503 8.76173,11.16782 12.5769,16.15032 12.60636,16.51342 0.0376,0.46305 -0.40731,0.86019 -3.87653,3.63234 -2.65094,2.11827 -4.02362,3.11974 -4.33439,3.11343 -0.37373,-0.008 -2.76554,-2.93708 -13.0337,-16.02503 -8.74575,-11.14746 -12.54593,-16.15099 -12.57583,-16.51341 -0.0383,-0.46325 0.37754,-0.85901 3.84601,-3.63234 2.66643,-2.13204 4.04989,-3.11979 4.36491,-3.11344 z m -43.37442,3.99863 c 0.53159,-0.18281 1.44133,0.92948 5.98268,6.74577 4.34579,5.56577 5.2501,6.82484 5.2501,7.32573 0,0.51541 -0.0559,0.61048 -0.45785,0.61048 -0.39273,0 -1.37019,-1.14571 -5.79954,-6.80682 -4.885,-6.24349 -5.59857,-7.31302 -5.18906,-7.72254 0.0691,-0.0691 0.13773,-0.1265 0.21367,-0.15262 z m 28.23458,8.27197 c 0.37807,0.008 2.68933,2.87889 13.00317,16.02503 8.76172,11.16782 12.57688,16.15032 12.60636,16.51341 0.0376,0.46306 -0.40731,0.86021 -3.87653,3.63234 -2.65092,2.11826 -4.02363,3.11975 -4.33439,3.11344 -0.37374,-0.008 -2.76554,-2.93708 -13.0337,-16.02503 -8.74575,-11.14747 -12.54593,-16.15099 -12.57583,-16.51342 -0.0383,-0.46325 0.37753,-0.859 3.84601,-3.63234 2.66642,-2.13203 4.0499,-3.11978 4.36491,-3.11343 z m 62.63498,13.21683 c 0.21026,-0.0286 0.39681,0.0292 0.39681,0.18315 0,0.10321 -0.25754,1.11244 -0.57995,2.22824 -0.72845,2.52105 -0.71656,3.09212 0.18314,3.66286 2.59005,1.64309 3.6106,2.46174 3.35763,2.71663 -0.10541,0.1062 -1.31575,0.30461 -2.6861,0.42733 -1.37036,0.12272 -2.53065,0.23594 -2.59453,0.27472 -0.0639,0.0388 -0.44826,1.22101 -0.85467,2.59453 -0.40641,1.37352 -0.85693,2.47243 -0.97676,2.47243 -0.24083,0 -0.53765,-0.68663 -1.31253,-2.89977 -0.75299,-2.15064 -0.75257,-2.15001 -3.84601,-2.0451 -2.37882,0.0807 -2.59453,0.065 -2.59453,-0.24419 0,-0.18528 0.37615,-0.63384 0.82415,-1.00729 0.448,-0.37344 1.29236,-1.04482 1.86195,-1.49567 1.32124,-1.04579 1.50861,-1.38299 1.19044,-1.89248 -0.30877,-0.4944 -1.37358,-3.78832 -1.37358,-4.24281 0,-0.50367 0.28691,-0.42119 1.49567,0.39681 2.31584,1.5672 2.67664,1.73986 3.14396,1.73986 0.46502,0 3.21248,-1.83351 3.78496,-2.53348 0.14172,-0.17329 0.3697,-0.30711 0.57995,-0.33577 z m -14.95669,12.66741 c 0.12689,0.0131 0.21433,0.13866 0.21366,0.33576 0,0.18447 -0.26496,1.28238 -0.57995,2.44191 -0.31501,1.15953 -0.57934,2.25512 -0.57995,2.44191 0,0.19965 0.38052,0.55675 0.91571,0.88519 0.50071,0.3073 1.2183,0.79377 1.58724,1.06834 0.36895,0.27457 0.90055,0.67113 1.19044,0.88519 0.86865,0.64144 0.68413,0.87756 -0.7631,1.00729 -0.71153,0.0638 -1.93225,0.19834 -2.71663,0.27471 l -1.43462,0.1221 -0.18314,0.67152 c -0.52553,2.10672 -1.33849,4.42597 -1.55672,4.42597 -0.1359,0 -0.34091,-0.29842 -0.45786,-0.64101 -0.11693,-0.34259 -0.43392,-1.26295 -0.70205,-2.04509 -0.26813,-0.78215 -0.67698,-1.60583 -0.91571,-1.86196 -0.42494,-0.45591 -0.47467,-0.46778 -2.96082,-0.39681 -2.95347,0.0843 -3.11889,-0.0507 -1.70933,-1.31253 0.45659,-0.40872 1.32546,-1.10253 1.923,-1.55672 0.87848,-0.66775 1.06834,-0.95741 1.06834,-1.40409 0,-0.30383 -0.0855,-0.58063 -0.18315,-0.641 -0.173,-0.10692 -1.34305,-3.70299 -1.34305,-4.12073 0,-0.38286 0.42787,-0.20623 1.80091,0.70205 2.46023,1.6275 2.72096,1.77039 2.96082,1.77039 0.26087,0 1.94664,-1.21667 3.26605,-2.35034 0.57127,-0.49085 0.94842,-0.72388 1.15991,-0.70205 z m -14.8346,12.24007 c 0.36126,0 0.37742,0.68346 0.0305,1.77039 -0.14418,0.45168 -0.42421,1.41591 -0.61048,2.13667 -0.33368,1.29119 -0.32316,1.32509 0.0611,1.70933 0.21449,0.21448 0.67108,0.56932 1.03781,0.79362 1.59347,0.97457 3.20133,2.15498 3.20501,2.35034 0.004,0.21661 -1.68717,0.42009 -3.63234,0.45786 -1.29872,0.0252 -1.94046,0.21038 -2.13667,0.57995 -0.0826,0.15573 -0.41415,1.25684 -0.7631,2.44191 -0.4914,1.66881 -0.71984,2.13554 -0.97676,2.13667 -0.20361,8.6e-4 -0.37898,-0.19546 -0.45786,-0.5189 -0.26276,-1.07739 -1.26496,-3.42906 -1.64829,-3.84601 -0.37308,-0.4058 -0.5575,-0.42733 -2.96082,-0.42733 -2.78276,0 -2.978,-0.0689 -2.13667,-0.97677 0.24013,-0.25909 0.95772,-0.82282 1.58724,-1.25148 2.13045,-1.45067 2.11767,-1.38549 0.97677,-4.6091 -0.38077,-1.07582 -0.67153,-2.02661 -0.67153,-2.13667 0,-0.30556 0.67021,-0.24101 0.94624,0.0915 0.13441,0.16196 0.79701,0.60311 1.46515,0.97677 0.66814,0.37364 1.27917,0.75129 1.34305,0.85466 0.0639,0.10337 0.31336,0.26493 0.57995,0.36629 0.40244,0.15301 0.64981,0.0936 1.46515,-0.42733 0.54011,-0.34505 1.42952,-1.05601 1.98405,-1.55672 0.55452,-0.50071 1.15551,-0.91572 1.31253,-0.91572 z m 17.12389,23.015 c 0.37448,-0.0181 0.39681,0.0752 0.39681,0.36629 0,0.78938 -0.54665,1.53021 -1.43462,1.923 -1.02685,0.45423 -1.14824,1.01046 -0.36629,1.73986 1.51835,1.41631 2.03313,4.324 1.25148,7.17311 -0.61226,2.23169 -1.80867,4.4201 -3.05239,5.58587 -1.33355,1.24996 -1.22516,1.48596 0.61048,1.31253 2.35348,-0.22237 2.95389,-0.59926 4.27334,-2.62506 0.95659,-1.46868 1.67962,-2.07574 2.0451,-1.70933 0.50483,0.50612 -2.86002,5.80438 -4.0902,6.44053 -0.32931,0.17028 -1.16237,0.43998 -1.83143,0.57996 -1.11686,0.23368 -1.35188,0.21198 -2.99134,-0.18315 -2.25428,-0.5433 -3.81912,-1.24574 -4.82277,-2.16719 -1.59092,-1.46064 -2.03156,-1.63298 -3.90706,-1.49567 -0.91863,0.0672 -1.75628,0.0522 -1.86195,-0.0305 -0.23531,-0.18416 -1.67718,-2.05833 -2.07563,-2.71662 -0.41703,-0.68894 -0.48727,-1.34628 -0.27471,-2.1672 0.16204,-0.62584 0.24072,-0.73257 0.73257,-0.73257 0.43528,0 0.6336,0.14879 0.88519,0.61048 1.51945,2.7883 3.73998,3.04276 5.6164,0.641 0.87959,-1.12586 2.98893,-4.5447 3.72391,-6.0132 0.6171,-1.23299 1.45428,-2.54429 2.71662,-4.2123 1.02336,-1.35222 2.26908,-2.05774 3.93758,-2.25876 0.21055,-0.0254 0.39408,-0.055 0.51891,-0.061 z m -23.22867,131.52736 c -0.14717,-0.009 -0.30435,0.004 -0.5189,0.0305 -0.47435,0.0587 -1.87902,0.17388 -3.14396,0.27472 -2.60618,0.20769 -3.72504,0.35968 -5.3722,0.641 -1.57855,0.26957 -1.65952,0.29618 -1.58725,0.67153 0.0441,0.22848 0.50022,0.44732 1.49567,0.73257 2.1478,0.61545 6.59461,2.24843 8.33302,3.05239 1.48228,0.6855 2.9749,1.28466 4.97539,2.01457 0.52706,0.19231 1.19193,0.4833 1.49567,0.641 0.82068,0.42608 2.95292,0.95601 3.29658,0.82415 0.16479,-0.0633 0.27471,-0.26839 0.27471,-0.45786 0,-0.36894 -3.85939,-4.27376 -4.97539,-5.03644 -0.36894,-0.25212 -1.39328,-1.12884 -2.28929,-1.95353 -1.21581,-1.11904 -1.54255,-1.40758 -1.98405,-1.43462 z m -17.88699,2.35034 c -0.81223,0.0243 -1.59627,0.12063 -2.38086,0.27471 -1.29306,0.25396 -4.20661,0.72572 -6.68473,1.06834 -1.21224,0.16758 -3.02774,0.42755 -4.02915,0.57995 -1.00141,0.15243 -2.35887,0.32898 -2.99134,0.39681 -1.97854,0.21222 -2.99735,0.945 -3.72391,2.65558 -0.22331,0.52573 -0.64733,1.47367 -0.94624,2.10615 -2.30547,4.87817 -6.46278,16.38494 -7.66149,21.18356 -0.22382,0.896 -0.72792,2.64418 -1.09886,3.90706 -0.37092,1.26288 -0.9397,3.30323 -1.25148,4.51753 -0.31181,1.21432 -0.87611,3.44692 -1.282,4.97539 -0.75174,2.83094 -0.99489,4.84101 -0.57995,5.09749 0.13413,0.0829 0.37113,-0.0323 0.54943,-0.30524 0.16541,-0.25324 0.94925,-1.3324 1.73986,-2.38086 0.79059,-1.04848 1.71574,-2.29575 2.07562,-2.77768 1.86335,-2.49553 4.34018,-5.42319 5.09749,-6.04372 0.47051,-0.38556 0.85466,-0.83247 0.85466,-0.97677 0,-0.14432 -0.25672,-1.18552 -0.57995,-2.31981 -1.03397,-3.62836 -0.93919,-7.63097 0.18314,-7.63097 0.40969,0 0.52045,0.1984 0.97677,1.64829 0.57883,1.83906 1.25866,3.22723 2.31981,4.79225 1.12911,1.66531 1.40792,1.76681 3.81549,1.61776 1.11691,-0.0692 4.59071,-0.18745 7.75306,-0.27471 4.14171,-0.11427 6.28201,-0.23896 7.63097,-0.48838 l 1.89248,-0.36629 1.73986,0.61048 c 4.00132,1.35071 6.59771,1.76145 11.29383,1.77038 3.76794,0.007 5.27862,-0.55448 5.12801,-1.86195 -0.0587,-0.50964 -0.25328,-0.60095 -3.14396,-1.70934 -3.32798,-1.27605 -4.28603,-1.70438 -7.4173,-3.20501 -1.96545,-0.94189 -2.411,-1.29205 -1.80091,-1.52619 0.31009,-0.119 2.81402,0.51525 5.40273,1.37357 0.9487,0.31455 2.9974,0.93244 4.57858,1.37358 1.58118,0.44113 4.17318,1.16791 5.73849,1.64829 2.83839,0.87105 2.84267,0.90015 5.00591,0.79362 3.13718,-0.1545 4.10978,-0.70912 4.27334,-2.41139 0.0608,-0.63265 -0.005,-0.98402 -0.18314,-1.12938 -0.29606,-0.24052 -4.30731,-1.80903 -7.72254,-3.02186 -1.26494,-0.44925 -3.11739,-1.14384 -4.0902,-1.5262 -0.97278,-0.38232 -1.84234,-0.70205 -1.95353,-0.70205 -0.43121,0 -2.23121,-1.0075 -2.86924,-1.61776 -0.36894,-0.35291 -1.0088,-0.78158 -1.4041,-0.94624 -0.82645,-0.34431 -0.93891,-0.77186 -0.24419,-0.94624 0.34135,-0.0857 1.30772,0.20194 3.3271,1.03781 5.01535,2.07597 6.94705,2.81872 11.78222,4.48701 4.15237,1.43268 4.89807,1.64829 6.04372,1.64829 1.82915,0 2.00837,-0.22095 2.10615,-2.65558 0.0579,-1.44324 0.0272,-1.93154 -0.18314,-2.10615 -0.14934,-0.12393 -1.41356,-0.60224 -2.77768,-1.06833 -1.36414,-0.46606 -3.38018,-1.2008 -4.48701,-1.64829 -1.10681,-0.4475 -2.6586,-1.05366 -3.44919,-1.34305 -0.7906,-0.2894 -2.07865,-0.79473 -2.86925,-1.12938 -0.79059,-0.33465 -1.8538,-0.77271 -2.38086,-0.97677 -0.52706,-0.20405 -2.38143,-1.10278 -4.12072,-1.98405 -2.79012,-1.41371 -3.18201,-1.65748 -3.23553,-2.10615 -0.10197,-0.85491 -0.13291,-0.87169 7.05101,2.0451 5.18571,2.10554 14.11461,5.05214 14.52937,4.79225 0.40378,-0.25298 0.53461,-1.61889 0.24419,-2.59453 -0.11536,-0.38753 -0.47837,-0.92516 -0.79362,-1.19043 -0.82733,-0.69618 -6.32015,-3.43405 -8.27197,-4.12072 -0.91463,-0.3218 -2.05557,-0.783 -2.56401,-1.03781 -0.50842,-0.25481 -1.2914,-0.5666 -1.70933,-0.70205 -0.41793,-0.13544 -2.54436,-1.15111 -4.76173,-2.22825 -4.37762,-2.12647 -6.31552,-2.86865 -10.28654,-4.09019 -2.50576,-0.77081 -4.53042,-1.19463 -6.37949,-1.25148 -0.27736,-0.009 -0.5534,-0.008 -0.82415,0 z m 146.7893,9.67606 c 0.44633,-0.0442 0.87477,0.13801 1.22095,0.54943 0.26136,0.31062 0.60926,0.61303 0.79362,0.67153 0.18437,0.0585 0.82886,0.77444 1.4041,1.58724 0.57524,0.81275 1.44022,1.91085 1.92301,2.44191 0.48278,0.53107 0.97969,1.15065 1.12938,1.37357 0.14968,0.22297 0.87988,0.93658 1.61776,1.58725 0.73789,0.65066 1.57416,1.41465 1.86196,1.67881 0.28779,0.26413 0.93183,0.78328 1.43462,1.15991 0.50278,0.37659 1.36542,1.08451 1.89248,1.58724 0.52706,0.50273 1.1714,1.02474 1.43462,1.1599 0.66037,0.33901 4.69911,3.51463 5.67744,4.45649 0.44041,0.42397 1.49527,1.11807 2.31982,1.55672 1.92344,1.02326 1.98057,1.33934 0.54943,2.28929 -1.9413,1.28854 -2.59453,2.44909 -2.59453,4.45648 0,1.30596 0.14382,1.78876 0.79362,2.50296 0.30501,0.33525 0.34976,0.56552 0.24419,1.19043 -0.0721,0.42676 -0.289,0.99801 -0.48838,1.25148 -0.46392,0.58976 -2.77065,1.79084 -5.34168,2.77767 -2.86952,1.10137 -5.54864,2.2149 -6.53211,2.71663 -0.4657,0.23759 -1.84014,0.8416 -3.05238,1.34305 -1.21225,0.5015 -3.0666,1.26917 -4.12073,1.70933 -1.05411,0.4402 -2.80074,1.12018 -3.87653,1.5262 -1.0758,0.40601 -2.7122,1.13626 -3.63234,1.61776 -0.92015,0.48147 -1.74846,0.88519 -1.83143,0.88519 -0.083,0 -0.95187,0.38031 -1.95353,0.85467 -1.00167,0.47434 -1.86962,0.85467 -1.923,0.85467 -0.0534,0 -0.80713,0.35797 -1.67882,0.7631 -0.87167,0.40513 -2.79757,1.10598 -4.27334,1.55671 -1.47576,0.45074 -2.83739,0.93698 -3.02186,1.09886 -0.41465,0.36392 -0.41987,0.91954 -0.0305,2.25877 0.3868,1.33054 0.15243,2.11295 -0.82414,2.77767 -0.61453,0.41828 -1.00182,0.48763 -3.02186,0.61048 -3.81215,0.23181 -4.13298,0.30319 -5.09749,1.09886 -2.16519,1.78618 -10.80356,6.74494 -12.97265,7.44782 -1.6529,0.53566 -2.25464,1.01276 -3.3271,2.65558 -0.75101,1.15043 -1.00657,1.74924 -1.34305,3.26605 -1.09947,4.9562 -2.65107,9.59949 -3.75443,11.20227 -0.26667,0.38738 -1.41333,1.50524 -2.56401,2.47243 -1.55245,1.30505 -2.10615,1.86865 -2.10615,2.19772 0,0.55255 1.62262,2.01457 2.22825,2.01457 0.23299,0 0.81689,0.19433 1.31252,0.45786 1.08607,0.57746 1.7021,0.61282 3.78496,0.1221 1.46276,-0.34461 1.66936,-0.46958 2.44191,-1.31253 0.46284,-0.50508 1.3337,-1.6375 1.95353,-2.53348 0.61984,-0.89599 1.5466,-2.09731 2.0451,-2.6861 1.26372,-1.49269 3.39171,-3.26606 3.93758,-3.26606 0.59276,0 1.41483,0.64604 2.77767,2.13668 2.66012,2.90958 3.90082,6.55086 4.54806,13.49155 0.40796,4.37482 0.75051,6.69303 1.52619,10.04235 1.03101,4.4518 1.12321,5.15585 0.82415,6.04373 -0.36624,1.08743 -0.84499,1.11722 -1.00729,0.061 -0.30463,-1.98156 -0.72481,-4.1952 -1.06834,-5.61639 -0.2038,-0.84324 -0.44568,-2.18521 -0.54943,-2.99134 -0.10376,-0.80612 -0.36368,-1.925 -0.57995,-2.50296 -0.21629,-0.57804 -0.52247,-1.61796 -0.67153,-2.28929 -0.33785,-1.5216 -1.2276,-4.50219 -2.25876,-7.63096 -0.64967,-1.97121 -0.99818,-2.71555 -2.01458,-4.18177 -1.48717,-2.14537 -1.84874,-2.42145 -3.02186,-2.28929 -1.04816,0.11818 -1.21857,0.24292 -3.26606,2.80819 -0.88962,1.11449 -2.25535,2.5958 -3.05238,3.26606 -1.26138,1.06076 -1.64138,1.25455 -2.93029,1.58724 -3.06629,0.79137 -5.36839,0.10544 -7.4173,-2.22824 -1.47192,-1.67662 -1.91521,-3.17986 -1.4041,-4.57859 0.14909,-0.40799 0.39841,-0.5675 1.1599,-0.79362 0.53798,-0.15979 1.03683,-0.30523 1.12939,-0.30523 0.35648,0 1.91247,-1.4566 2.62505,-2.47244 0.99538,-1.41894 2.64932,-5.99723 3.57129,-9.88973 1.35512,-5.7212 1.34574,-5.70792 7.75307,-9.03507 0.89599,-0.46523 2.55603,-1.34106 3.66286,-1.95353 1.10682,-0.61251 2.47706,-1.298 3.05239,-1.49567 0.8187,-0.28125 1.41077,-0.69971 2.74715,-1.98405 l 1.70933,-1.64829 0.24419,-1.43462 c 0.14222,-0.78401 0.34972,-1.97039 0.45786,-2.65557 0.10816,-0.68519 0.42548,-2.04263 0.70205,-2.99134 0.27657,-0.94871 0.8231,-2.88079 1.22096,-4.30387 0.39786,-1.42305 1.11582,-3.54116 1.58724,-4.70068 0.47142,-1.15951 0.96505,-2.44758 1.09886,-2.86924 0.13381,-0.42163 0.492,-1.22112 0.79362,-1.80091 0.3016,-0.57976 0.8127,-1.68692 1.12938,-2.44191 2.49328,-5.9441 7.32901,-14.40321 10.50021,-18.37537 0.50331,-0.63043 1.49473,-1.87963 2.19772,-2.77767 0.70299,-0.89803 2.10764,-2.44013 3.14396,-3.4492 1.03631,-1.00909 2.61424,-2.56308 3.51025,-3.4492 0.896,-0.88614 1.84261,-1.76752 2.10614,-1.95352 0.27448,-0.19372 0.55635,-0.30929 0.82415,-0.33577 z m -123.34696,27.47149 c 0.58578,-0.0165 1.17951,-0.008 1.8009,0 0.82853,0.0109 1.69347,0.0403 2.65558,0.0915 2.93371,0.15619 3.75827,0.29821 6.44054,0.97676 2.79861,0.70805 4.08017,1.17133 8.42459,3.11344 2.7395,1.22466 6.42883,3.93719 9.24873,6.80682 0.44406,0.45191 0.89697,0.82415 1.00729,0.82415 0.11029,0 0.74622,0.70869 1.40409,1.58724 0.65785,0.87858 1.64263,2.15077 2.19772,2.80819 0.55508,0.6574 1.16279,1.54032 1.37358,1.95353 0.2108,0.41317 0.90991,1.48806 1.52619,2.41139 2.71795,4.07207 5.39,10.83116 7.32573,18.46694 1.17053,4.61736 1.56895,6.82401 1.89248,10.34759 0.10162,1.10687 0.31619,2.81401 0.45786,3.81549 0.46163,3.26336 -0.20814,14.17167 -1.06834,17.5207 -0.28657,1.11576 -0.54391,2.71394 -0.73257,4.63963 -0.17677,1.80418 -1.74288,8.51005 -2.6861,11.47697 -0.30162,0.94873 -0.86606,2.72532 -1.25148,3.93758 -1.82042,5.7254 -6.14538,15.38218 -9.06559,20.26785 -1.62858,2.72478 -7.17224,10.96041 -8.11935,12.05693 -0.56136,0.64994 -1.49586,1.76164 -2.07562,2.47243 -1.86992,2.29237 -3.56053,4.17626 -4.42596,4.94487 -0.4646,0.41259 -1.69303,1.55809 -2.74715,2.53348 -3.10436,2.87237 -5.83263,4.9624 -8.54669,6.56263 -1.0014,0.59046 -2.37069,1.398 -3.05238,1.80091 -2.75114,1.62641 -9.31896,4.71528 -11.11069,5.21958 -1.00142,0.2819 -2.39773,0.65912 -3.08291,0.85467 -4.60138,1.31365 -11.12145,1.89302 -15.81137,1.37358 -4.1953,-0.46465 -13.45413,-3.89602 -16.17765,-5.98268 -0.47435,-0.36346 -1.3821,-1.01906 -2.01457,-1.46515 -3.47183,-2.44884 -6.26549,-5.29904 -9.64555,-9.82868 -1.54404,-2.06918 -3.88586,-6.25837 -5.03644,-9.00455 -0.64038,-1.52853 -1.41481,-3.34395 -1.70933,-4.02915 -0.29453,-0.6852 -0.75257,-2.05091 -1.03781,-3.05238 -0.28525,-1.00138 -0.72262,-2.55322 -0.97677,-3.4492 -1.07138,-3.77734 -1.80904,-7.81108 -2.19772,-12.2706 -0.10566,-1.21226 -0.28639,-3.16999 -0.39681,-4.33439 -0.22064,-2.32665 -0.19221,-7.04261 0.0305,-9.73711 0.43265,-5.23819 0.58217,-6.65811 0.85467,-7.87516 0.16521,-0.73785 0.42418,-2.17301 0.57995,-3.17448 0.27635,-1.77674 0.44436,-2.62447 1.61776,-7.75307 1.44058,-6.29622 3.99945,-13.55748 7.08154,-20.2068 0.65871,-1.42109 1.33877,-2.81742 1.5262,-3.08291 0.18742,-0.26548 0.67432,-1.10198 1.06833,-1.89248 0.39404,-0.79069 1.18476,-2.22585 1.77039,-3.17448 0.58562,-0.94873 1.41137,-2.27562 1.83143,-2.96082 2.40107,-3.91655 4.94261,-7.49194 7.69201,-10.7444 2.31914,-2.74342 4.86835,-5.5095 6.04373,-6.59316 0.57977,-0.53455 1.75123,-1.63311 2.59453,-2.44191 1.80875,-1.73472 3.64383,-3.28528 4.97539,-4.18177 0.52706,-0.35483 1.55012,-1.09851 2.28929,-1.64829 0.73915,-0.54976 2.17434,-1.49814 3.17448,-2.10614 2.33825,-1.4215 8.24653,-4.29482 10.3476,-5.03644 0.896,-0.31629 1.95921,-0.73533 2.38086,-0.91572 1.38933,-0.59431 3.2368,-1.02999 5.86058,-1.40409 2.06066,-0.29381 3.73694,-0.46939 5.4943,-0.51891 z m -8.1804,17.21546 c -0.11128,0.0276 -0.2302,0.12767 -0.33576,0.27472 -0.52306,0.7286 -1.63764,2.71046 -3.02187,5.3722 -0.9671,1.85963 -1.68619,2.98918 -2.31981,3.63234 -0.98185,0.99663 -1.01439,1.07199 -3.69339,6.68473 -0.95595,2.00285 -2.04737,4.19862 -2.41139,4.88381 -0.80117,1.50803 -0.83078,2.06991 -0.18314,4.30387 0.95615,3.29804 1.32052,3.68557 2.59453,2.83872 0.46896,-0.31178 1.33673,-0.86624 1.923,-1.25148 1.79498,-1.17944 7.44993,-3.899 8.85193,-4.24282 0.72634,-0.17806 1.81992,-0.51412 2.41138,-0.76309 0.59144,-0.24888 1.38557,-0.50777 1.77039,-0.57996 0.3848,-0.0723 0.92585,-0.36086 1.19043,-0.641 0.62841,-0.66517 1.53304,-3.67829 1.4041,-4.63963 -0.0849,-0.63265 -2.90692,-6.47676 -4.91435,-10.16444 -0.87277,-1.60335 -1.25987,-2.37896 -2.10614,-4.27335 -0.47476,-1.06271 -0.82606,-1.51736 -1.15991,-1.43462 z m 19.41318,1.89248 c -0.55084,0.002 -0.79891,0.0889 -1.03781,0.30524 -0.58713,0.53135 -1.52558,2.33121 -2.89977,5.52482 -0.68036,1.58119 -1.36885,3.13296 -1.52619,3.4492 -1.59284,3.20137 -2.67427,5.59036 -2.99134,6.62368 -0.21023,0.6852 -0.56992,1.63774 -0.79362,2.13667 -0.22373,0.49883 -1.04661,2.80297 -1.83143,5.09749 -0.78482,2.29451 -1.55422,4.49267 -1.70934,4.91434 -0.34449,0.93623 -0.36431,1.20498 -0.0915,1.37357 0.32844,0.20297 0.80999,-0.41566 2.25876,-2.89977 1.18643,-2.0342 2.17797,-3.66125 4.39544,-7.23415 0.34316,-0.55295 0.9632,-1.57367 1.37357,-2.25877 0.81961,-1.36845 8.0241,-12.16 8.76035,-13.12526 0.81767,-1.07203 0.45628,-2.14437 -1.03781,-3.17449 -0.76123,-0.52481 -1.10865,-0.63977 -2.19772,-0.70204 -0.26616,-0.0152 -0.48791,-0.0313 -0.67152,-0.0305 z m 18.03961,15.13984 c -1.1274,0.0142 -2.94126,0.28863 -4.88382,0.73257 -1.42307,0.32517 -4.26291,0.96441 -6.31844,1.43463 -2.05553,0.47001 -4.21248,1.07151 -4.79225,1.34305 -0.57977,0.27154 -2.01533,0.73047 -3.20501,1.00728 -2.04688,0.47627 -2.17818,0.53278 -2.62505,1.19043 -0.56967,0.83826 -0.61534,1.32914 -0.1221,2.1672 0.20519,0.34861 0.68493,1.47105 1.06834,2.47243 0.38339,1.00138 0.93386,2.18151 1.19043,2.62506 1.21317,2.0974 4.38083,10.49733 4.76173,12.60635 0.25366,1.40449 0.51816,1.49035 3.02186,0.85467 2.07596,-0.52716 2.40487,-0.8595 3.29658,-3.38815 0.39432,-1.1182 1.33979,-3.35772 2.07562,-4.94486 0.73582,-1.58715 1.64852,-3.6993 2.0451,-4.70068 1.04433,-2.63697 2.51099,-5.98478 3.41867,-7.78359 0.43388,-0.85974 0.79362,-1.63236 0.79362,-1.70933 0,-0.0772 0.36259,-0.85335 0.79362,-1.73986 0.43107,-0.88651 0.73433,-1.7593 0.67153,-1.92301 -0.0655,-0.17087 -0.51399,-0.25266 -1.19043,-0.24419 z m -31.50064,5.3722 c -0.39923,0.0499 -1.03209,0.36672 -1.98405,0.94624 -0.85633,0.5214 -1.79349,1.00045 -2.07562,1.06834 -0.28212,0.0674 -0.66244,0.27535 -0.85467,0.48838 -0.19224,0.21303 -1.18416,0.87078 -2.16719,1.46515 -2.83904,1.71676 -2.95722,1.79929 -4.18177,2.80819 -0.63977,0.52706 -1.61149,1.31819 -2.1672,1.73986 -0.55572,0.42167 -1.37981,1.0657 -1.83143,1.43462 -0.45164,0.36893 -1.30807,1.0888 -1.92301,1.58725 -6.32552,5.12732 -8.52226,7.1629 -11.01911,10.37811 -0.57302,0.73785 -1.10091,1.39604 -1.19043,1.43462 -0.97738,0.42089 -5.78528,6.22565 -7.75307,9.37083 -0.39635,0.63353 -1.1143,1.76179 -1.61776,2.50296 -1.88664,2.77733 -3.97255,6.79368 -4.91435,9.52345 -0.6785,1.96661 -1.52592,5.27374 -1.73986,6.7763 -0.11256,0.79059 -0.23377,1.65947 -0.27471,1.923 -0.0409,0.26353 -0.0753,0.97691 -0.061,1.55672 l 0.0305,1.03781 4.21229,0.21367 c 5.26932,0.27476 10.94422,1.1199 13.27788,1.98405 0.55045,0.20385 1.87737,0.61248 2.96082,0.88519 4.07032,1.02472 8.10662,3.4408 13.27788,7.96673 4.37218,3.82667 6.48019,6.48615 7.35626,9.30978 0.6601,2.12769 0.87904,2.25432 2.07562,1.25148 1.55975,-1.30711 6.33373,-7.10532 7.96673,-9.67607 0.65511,-1.03136 1.73779,-2.67946 2.38086,-3.66286 1.20683,-1.8455 1.69828,-3.19998 2.83872,-7.50887 0.27898,-1.05413 0.68786,-2.45876 0.88519,-3.14396 0.19734,-0.6851 0.55452,-2.42296 0.82415,-3.84601 0.26964,-1.42305 0.59681,-3.01371 0.70205,-3.54077 0.39518,-1.97912 0.59386,-4.97715 0.70205,-10.83597 0.0917,-4.9689 0.0428,-6.44015 -0.21367,-8.33302 -0.17138,-1.26491 -0.4111,-3.197 -0.51891,-4.30387 -0.1078,-1.10677 -0.30551,-2.3561 -0.45785,-2.77767 -0.15235,-0.42167 -0.61461,-2.46633 -1.03782,-4.51753 -1.39038,-6.73879 -2.8838,-11.28382 -3.78496,-11.6296 -0.37336,-0.14329 -0.69374,0.20273 -2.564,2.71663 -1.59872,2.14888 -1.6909,2.30252 -3.17448,4.70067 -1.46891,2.37442 -2.35642,3.22899 -3.32711,3.23553 -1.65809,0.0117 -1.91664,-0.44618 -1.34305,-2.31981 0.20468,-0.6685 0.68384,-2.47019 1.06834,-3.99863 0.38452,-1.52844 1.01602,-3.91535 1.43462,-5.31115 0.4186,-1.3958 0.70673,-2.61025 0.641,-2.71662 -0.0901,-0.14568 -0.21831,-0.21307 -0.45786,-0.18315 z m -9.67606,14.04098 c 1.23344,0.0174 2.74537,0.48995 4.51753,1.4041 1.98937,1.02629 3.37398,2.39908 3.87653,3.81548 0.71787,2.02318 0.55119,1.85351 2.01458,1.70934 1.13242,-0.11164 1.80375,-0.0362 5.2501,0.73257 2.17963,0.48585 4.00462,0.8852 4.05968,0.8852 0.49316,0 -1.32152,3.57153 -1.89248,3.72391 -0.20272,0.0537 -2.01821,-0.25064 -4.02915,-0.67153 -3.94148,-0.82487 -5.73936,-0.91791 -6.10478,-0.33576 -0.10679,0.17015 -0.15287,0.45078 -0.0915,0.61048 0.0612,0.1597 1.85357,1.2045 3.9681,2.35034 3.34618,1.81346 3.843,2.16304 3.84601,2.564 0.005,0.67426 -1.28361,2.87364 -1.67881,2.86925 -0.17932,0 -4.80513,-2.44094 -10.28655,-5.43325 -8.54413,-4.66425 -9.97847,-5.50587 -10.01183,-5.89111 -0.0227,-0.26226 0.6439,-1.69591 1.61777,-3.4492 0.91741,-1.65151 1.86711,-3.2786 2.10615,-3.60181 0.65099,-0.88007 1.60527,-1.29937 2.83872,-1.28201 z m 1.55671,4.54806 c -0.30222,-0.0212 -0.56271,0.0335 -0.79362,0.1221 -0.47471,0.18216 -1.43462,1.7695 -1.43462,2.38086 0,0.46552 0.18327,0.62107 1.80091,1.49567 1.00213,0.54191 1.96411,0.98013 2.13667,0.94624 1.01826,-0.20034 1.60392,-2.71384 0.85467,-3.66287 -0.55556,-0.70371 -1.65733,-1.21839 -2.56401,-1.282 z m -11.32435,9.95078 c 0.2208,0 4.45696,1.20484 9.40135,2.6861 13.20902,3.95726 13.27788,4.00385 13.27788,4.33439 0,0.54767 -1.53255,3.14162 -1.86195,3.14396 -0.17495,0 -0.98548,-0.23643 -1.80091,-0.51891 -1.43749,-0.49795 -1.48879,-0.49028 -1.86196,-0.15261 -0.54882,0.49668 -1.923,3.1146 -1.923,3.66286 0,0.33943 0.30407,0.71406 1.22095,1.43462 0.85645,0.67299 1.25148,1.11527 1.25148,1.4041 0,0.66303 -1.30644,2.99525 -1.67881,2.99134 -0.17742,0 -4.30821,-3.40329 -9.15716,-7.5394 -6.83044,-5.8261 -8.81486,-7.62667 -8.85192,-7.99725 -0.0276,-0.27555 0.29389,-1.09818 0.76309,-1.95353 0.61398,-1.11927 0.91832,-1.49528 1.22096,-1.49567 z m 4.85329,5.00592 c -0.11964,0.0114 -0.18314,0.073 -0.18314,0.15262 0,0.0889 1.34362,1.20464 2.99134,2.50295 3.29857,2.59907 3.27219,2.58296 4.05967,1.22096 0.8415,-1.45528 0.74952,-1.5196 -3.02186,-2.77767 -2.47746,-0.82649 -3.48707,-1.13322 -3.84601,-1.09886 z m -9.64554,3.66286 c 0.55777,-0.0791 18.92941,13.01274 19.01637,13.5526 0.0334,0.20707 -0.25199,0.99957 -0.641,1.73986 -0.5546,1.05539 -0.79297,1.34305 -1.12938,1.34305 -0.23598,0 -3.18763,-0.98546 -6.56264,-2.19772 -3.37498,-1.21216 -6.26138,-2.22824 -6.37948,-2.22824 -0.70758,0 0.35684,0.97061 5.15853,4.63963 4.18874,3.20076 5.3722,4.18484 5.3722,4.51753 0,0.23433 -0.2929,0.99 -0.67152,1.67881 -0.52459,0.9544 -0.80782,1.25148 -1.12939,1.25148 -0.46292,0 -20.63994,-7.90983 -21.33618,-8.36354 -0.23718,-0.15452 -0.4304,-0.32023 -0.42734,-0.39681 0.003,-0.0772 0.32253,-0.72315 0.70205,-1.43462 0.4295,-0.80534 0.80804,-1.31253 1.00729,-1.31253 0.17604,0 2.71434,1.0111 5.64692,2.22825 2.93257,1.21724 5.38012,2.15928 5.43324,2.10614 0.26915,-0.26919 -0.49464,-0.91527 -4.63962,-4.05967 -3.74034,-2.8375 -4.51157,-3.50952 -4.51754,-3.90706 -0.0106,-0.7019 1.18956,-2.77005 1.64829,-2.83872 0.2088,-0.0312 2.79533,0.80295 5.73849,1.86196 2.94318,1.0591 5.41472,1.923 5.4943,1.923 0.68861,0 -0.54307,-1.02355 -4.63963,-3.84601 -2.92901,-2.01799 -4.79554,-3.41457 -4.79225,-3.60181 0.0111,-0.63548 1.22866,-2.5958 1.64829,-2.65558 z m -18.40589,21.64143 c -1.52482,0.0478 -2.86777,0.18778 -3.08292,0.36628 -0.2894,0.24019 -0.30567,0.63651 -0.21366,3.81549 0.0566,1.9544 0.21223,4.37072 0.36628,5.3722 0.15406,1.00138 0.43682,2.21237 0.61048,2.6861 0.17365,0.47373 0.56826,1.7508 0.88519,2.83872 2.18042,7.48504 6.92024,12.86442 13.24736,15.04827 1.31915,0.45527 1.72759,0.5189 4.27335,0.5189 2.24245,0 3.30958,-0.11164 5.15853,-0.48838 3.33249,-0.67895 7.37062,-2.44577 10.56126,-4.6091 1.7158,-1.16323 2.32514,-1.64068 4.45648,-3.47973 l 0.70205,-0.57995 -0.21366,-0.88519 c -0.12991,-0.48565 -0.24419,-1.1016 -0.24419,-1.34305 0,-0.62044 -0.99096,-2.10683 -2.38087,-3.5713 -0.65363,-0.68861 -1.53016,-1.68096 -1.923,-2.22824 -1.62691,-2.26677 -7.27225,-6.71154 -10.80545,-8.48563 -4.16018,-2.08891 -9.35442,-3.76015 -13.5526,-4.33439 -1.26494,-0.17299 -2.90676,-0.40433 -3.66286,-0.51891 -0.93925,-0.14236 -2.65696,-0.16986 -4.18177,-0.12209 z"
       id="rect10401" />
  </g>
</svg>
