<?xml version="1.0" standalone="no"?>
<!DOCTYPE svg PUBLIC "-//W3C//DTD SVG 20010904//EN"
 "http://www.w3.org/TR/2001/REC-SVG-20010904/DTD/svg10.dtd">
<svg version="1.0" xmlns="http://www.w3.org/2000/svg"
 width="250.000000pt" height="27.000000pt" viewBox="0 0 250.000000 27.000000"
 preserveAspectRatio="xMidYMid meet">
<metadata>
Created by potrace 1.11, written by Peter Selinger 2001-2013
</metadata>
<g transform="translate(0.000000,27.000000) scale(0.100000,-0.100000)"
fill="#000000" stroke="none">
<path style="stroke-dasharray: 1000; stroke-dashoffset: 1000; animation: dash 5s linear alternate infinite;" d="M1189 256 c-2 -2 -200 -6 -439 -10 -489 -7 -478 -7 -488 -23 -4 -6
-28 -14 -52 -16 -25 -2 2 -2 58 0 75 2 103 0 100 -8 -2 -7 -35 -13 -85 -15
-45 -1 -99 -8 -120 -13 -21 -6 -59 -11 -85 -11 -27 0 -48 -4 -48 -10 0 -12 43
-23 87 -23 18 0 33 -4 33 -9 0 -4 -9 -8 -20 -8 -11 0 -20 -7 -20 -15 0 -8 -3
-14 -7 -13 -5 1 -24 -2 -43 -6 -33 -8 -34 -9 -12 -17 13 -5 71 -8 130 -7 59 1
231 -2 382 -6 412 -10 419 -10 500 -3 41 4 80 7 85 8 6 0 31 -1 58 -4 26 -2
50 0 53 4 8 14 152 11 156 -3 4 -12 155 -14 208 -3 14 2 47 5 75 6 27 1 56 6
63 12 9 7 22 4 44 -13 26 -19 39 -22 81 -17 27 4 57 3 66 -2 24 -13 163 -20
184 -9 11 5 17 5 17 -1 0 -12 49 6 65 24 16 19 54 25 63 10 8 -15 22 -18 70
-16 17 0 32 6 32 13 0 6 10 22 21 34 17 19 26 21 41 13 11 -6 27 -8 36 -4 14
5 14 7 -1 23 -15 14 -45 17 -195 20 -97 2 -181 8 -187 13 -5 5 -22 9 -38 9
-16 0 -35 7 -43 15 -17 17 -70 20 -76 6 -1 -6 -15 -12 -30 -15 -24 -4 -27 -2
-24 17 3 23 8 24 138 26 43 1 56 4 52 14 -2 7 -21 13 -42 14 -68 1 -367 13
-382 16 -32 4 -200 -15 -205 -24 -9 -13 -75 -11 -75 2 0 8 -21 9 -70 5 -58 -6
-71 -4 -76 9 -6 14 -25 20 -35 11z"/>
</g>
</svg>
